<svg width="322" height="252" viewBox="0 0 322 252" fill="none" xmlns="http://www.w3.org/2000/svg">
<path d="M0 5C0 2.23857 2.23858 0 5 0H317C319.761 0 322 2.23858 322 5V247C322 249.761 319.761 252 317 252H5C2.23858 252 0 249.761 0 247V5Z" fill="#E8E8E8"/>
<path d="M30.933 30.04C31.0396 30.04 31.133 30.0833 31.213 30.17L31.983 31C31.3963 31.68 30.683 32.21 29.843 32.59C29.0096 32.97 27.9996 33.16 26.813 33.16C25.7863 33.16 24.853 32.9833 24.013 32.63C23.173 32.27 22.4563 31.77 21.863 31.13C21.2696 30.4833 20.8096 29.71 20.483 28.81C20.1563 27.91 19.993 26.92 19.993 25.84C19.993 24.76 20.163 23.77 20.503 22.87C20.843 21.97 21.3196 21.1967 21.933 20.55C22.553 19.9033 23.293 19.4033 24.153 19.05C25.013 18.69 25.963 18.51 27.003 18.51C28.023 18.51 28.923 18.6733 29.703 19C30.483 19.3267 31.1696 19.77 31.763 20.33L31.123 21.22C31.083 21.2867 31.0296 21.3433 30.963 21.39C30.903 21.43 30.8196 21.45 30.713 21.45C30.593 21.45 30.4463 21.3867 30.273 21.26C30.0996 21.1267 29.873 20.98 29.593 20.82C29.313 20.66 28.963 20.5167 28.543 20.39C28.123 20.2567 27.6063 20.19 26.993 20.19C26.253 20.19 25.5763 20.32 24.963 20.58C24.3496 20.8333 23.8196 21.2033 23.373 21.69C22.933 22.1767 22.5896 22.77 22.343 23.47C22.0963 24.17 21.973 24.96 21.973 25.84C21.973 26.7333 22.0996 27.53 22.353 28.23C22.613 28.93 22.963 29.5233 23.403 30.01C23.8496 30.49 24.373 30.8567 24.973 31.11C25.5796 31.3633 26.233 31.49 26.933 31.49C27.3596 31.49 27.743 31.4667 28.083 31.42C28.4296 31.3667 28.7463 31.2867 29.033 31.18C29.3263 31.0733 29.5963 30.94 29.843 30.78C30.0963 30.6133 30.3463 30.4167 30.593 30.19C30.7063 30.09 30.8196 30.04 30.933 30.04ZM37.887 22.71C38.627 22.71 39.2937 22.8333 39.887 23.08C40.4804 23.3267 40.987 23.6767 41.407 24.13C41.827 24.5833 42.147 25.1333 42.367 25.78C42.5937 26.42 42.707 27.1367 42.707 27.93C42.707 28.73 42.5937 29.45 42.367 30.09C42.147 30.73 41.827 31.2767 41.407 31.73C40.987 32.1833 40.4804 32.5333 39.887 32.78C39.2937 33.02 38.627 33.14 37.887 33.14C37.1404 33.14 36.467 33.02 35.867 32.78C35.2737 32.5333 34.767 32.1833 34.347 31.73C33.927 31.2767 33.6037 30.73 33.377 30.09C33.157 29.45 33.047 28.73 33.047 27.93C33.047 27.1367 33.157 26.42 33.377 25.78C33.6037 25.1333 33.927 24.5833 34.347 24.13C34.767 23.6767 35.2737 23.3267 35.867 23.08C36.467 22.8333 37.1404 22.71 37.887 22.71ZM37.887 31.75C38.887 31.75 39.6337 31.4167 40.127 30.75C40.6204 30.0767 40.867 29.14 40.867 27.94C40.867 26.7333 40.6204 25.7933 40.127 25.12C39.6337 24.4467 38.887 24.11 37.887 24.11C37.3804 24.11 36.937 24.1967 36.557 24.37C36.1837 24.5433 35.8704 24.7933 35.617 25.12C35.3704 25.4467 35.1837 25.85 35.057 26.33C34.937 26.8033 34.877 27.34 34.877 27.94C34.877 29.14 35.1237 30.0767 35.617 30.75C36.117 31.4167 36.8737 31.75 37.887 31.75ZM44.9647 33V22.87H46.0347C46.288 22.87 46.4447 22.9933 46.5047 23.24L46.6347 24.28C47.008 23.82 47.428 23.4433 47.8947 23.15C48.3614 22.8567 48.9014 22.71 49.5147 22.71C50.1947 22.71 50.7447 22.9 51.1647 23.28C51.5914 23.66 51.898 24.1733 52.0847 24.82C52.2314 24.4533 52.418 24.1367 52.6447 23.87C52.878 23.6033 53.138 23.3833 53.4247 23.21C53.7114 23.0367 54.0147 22.91 54.3347 22.83C54.6614 22.75 54.9914 22.71 55.3247 22.71C55.858 22.71 56.3314 22.7967 56.7447 22.97C57.1647 23.1367 57.518 23.3833 57.8047 23.71C58.098 24.0367 58.3214 24.44 58.4747 24.92C58.628 25.3933 58.7047 25.9367 58.7047 26.55V33H56.9147V26.55C56.9147 25.7567 56.7414 25.1567 56.3947 24.75C56.048 24.3367 55.548 24.13 54.8947 24.13C54.6014 24.13 54.3214 24.1833 54.0547 24.29C53.7947 24.39 53.5647 24.54 53.3647 24.74C53.1647 24.94 53.0047 25.1933 52.8847 25.5C52.7714 25.8 52.7147 26.15 52.7147 26.55V33H50.9247V26.55C50.9247 25.7367 50.7614 25.13 50.4347 24.73C50.108 24.33 49.6314 24.13 49.0047 24.13C48.5647 24.13 48.158 24.25 47.7847 24.49C47.4114 24.7233 47.068 25.0433 46.7547 25.45V33H44.9647ZM63.2 30.56C63.5267 31 63.8833 31.31 64.27 31.49C64.6567 31.67 65.09 31.76 65.57 31.76C66.5167 31.76 67.2433 31.4233 67.75 30.75C68.2567 30.0767 68.51 29.1167 68.51 27.87C68.51 27.21 68.45 26.6433 68.33 26.17C68.2167 25.6967 68.05 25.31 67.83 25.01C67.61 24.7033 67.34 24.48 67.02 24.34C66.7 24.2 66.3367 24.13 65.93 24.13C65.35 24.13 64.84 24.2633 64.4 24.53C63.9667 24.7967 63.5667 25.1733 63.2 25.66V30.56ZM63.11 24.44C63.5367 23.9133 64.03 23.49 64.59 23.17C65.15 22.85 65.79 22.69 66.51 22.69C67.0967 22.69 67.6267 22.8033 68.1 23.03C68.5733 23.25 68.9767 23.58 69.31 24.02C69.6433 24.4533 69.9 24.9933 70.08 25.64C70.26 26.2867 70.35 27.03 70.35 27.87C70.35 28.6167 70.25 29.3133 70.05 29.96C69.85 30.6 69.56 31.1567 69.18 31.63C68.8067 32.0967 68.3467 32.4667 67.8 32.74C67.26 33.0067 66.65 33.14 65.97 33.14C65.35 33.14 64.8167 33.0367 64.37 32.83C63.93 32.6167 63.54 32.3233 63.2 31.95V36.43H61.41V22.87H62.48C62.7333 22.87 62.89 22.9933 62.95 23.24L63.11 24.44ZM80.9509 22.87V33H79.8909C79.6376 33 79.4776 32.8767 79.4109 32.63L79.2709 31.54C78.8309 32.0267 78.3376 32.42 77.7909 32.72C77.2443 33.0133 76.6176 33.16 75.9109 33.16C75.3576 33.16 74.8676 33.07 74.4409 32.89C74.0209 32.7033 73.6676 32.4433 73.3809 32.11C73.0943 31.7767 72.8776 31.3733 72.7309 30.9C72.5909 30.4267 72.5209 29.9033 72.5209 29.33V22.87H74.3009V29.33C74.3009 30.0967 74.4743 30.69 74.8209 31.11C75.1743 31.53 75.7109 31.74 76.4309 31.74C76.9576 31.74 77.4476 31.6167 77.9009 31.37C78.3609 31.1167 78.7843 30.77 79.1709 30.33V22.87H80.9509ZM86.8833 33.16C86.0833 33.16 85.4666 32.9367 85.0333 32.49C84.6066 32.0433 84.3933 31.4 84.3933 30.56V24.36H83.1733C83.0666 24.36 82.9766 24.33 82.9033 24.27C82.8299 24.2033 82.7933 24.1033 82.7933 23.97V23.26L84.4533 23.05L84.8633 19.92C84.8833 19.82 84.9266 19.74 84.9933 19.68C85.0666 19.6133 85.1599 19.58 85.2733 19.58H86.1733V23.07H89.1033V24.36H86.1733V30.44C86.1733 30.8667 86.2766 31.1833 86.4833 31.39C86.6899 31.5967 86.9566 31.7 87.2833 31.7C87.4699 31.7 87.6299 31.6767 87.7633 31.63C87.9033 31.5767 88.0233 31.52 88.1233 31.46C88.2233 31.4 88.3066 31.3467 88.3733 31.3C88.4466 31.2467 88.5099 31.22 88.5633 31.22C88.6566 31.22 88.7399 31.2767 88.8133 31.39L89.3333 32.24C89.0266 32.5267 88.6566 32.7533 88.2233 32.92C87.7899 33.08 87.3433 33.16 86.8833 33.16ZM97.6627 26.83C97.6627 26.4167 97.6027 26.04 97.4827 25.7C97.3693 25.3533 97.1993 25.0567 96.9727 24.81C96.7527 24.5567 96.4827 24.3633 96.1627 24.23C95.8427 24.09 95.4793 24.02 95.0727 24.02C94.2193 24.02 93.5427 24.27 93.0427 24.77C92.5493 25.2633 92.2427 25.95 92.1227 26.83H97.6627ZM99.1027 31.58C98.8827 31.8467 98.6193 32.08 98.3127 32.28C98.006 32.4733 97.676 32.6333 97.3227 32.76C96.976 32.8867 96.616 32.98 96.2427 33.04C95.8693 33.1067 95.4993 33.14 95.1327 33.14C94.4327 33.14 93.786 33.0233 93.1927 32.79C92.606 32.55 92.096 32.2033 91.6627 31.75C91.236 31.29 90.9027 30.7233 90.6627 30.05C90.4227 29.3767 90.3027 28.6033 90.3027 27.73C90.3027 27.0233 90.4093 26.3633 90.6227 25.75C90.8427 25.1367 91.156 24.6067 91.5627 24.16C91.9693 23.7067 92.466 23.3533 93.0527 23.1C93.6393 22.84 94.2993 22.71 95.0327 22.71C95.6393 22.71 96.1993 22.8133 96.7127 23.02C97.2327 23.22 97.6793 23.5133 98.0527 23.9C98.4327 24.28 98.7293 24.7533 98.9427 25.32C99.156 25.88 99.2627 26.52 99.2627 27.24C99.2627 27.52 99.2327 27.7067 99.1727 27.8C99.1127 27.8933 98.9993 27.94 98.8327 27.94H92.0627C92.0827 28.58 92.1693 29.1367 92.3227 29.61C92.4827 30.0833 92.7027 30.48 92.9827 30.8C93.2627 31.1133 93.596 31.35 93.9827 31.51C94.3693 31.6633 94.8027 31.74 95.2827 31.74C95.7293 31.74 96.1127 31.69 96.4327 31.59C96.7593 31.4833 97.0393 31.37 97.2727 31.25C97.506 31.13 97.6993 31.02 97.8527 30.92C98.0127 30.8133 98.1493 30.76 98.2627 30.76C98.4093 30.76 98.5227 30.8167 98.6027 30.93L99.1027 31.58ZM103.139 24.9C103.459 24.2067 103.852 23.6667 104.319 23.28C104.786 22.8867 105.356 22.69 106.029 22.69C106.242 22.69 106.446 22.7133 106.639 22.76C106.839 22.8067 107.016 22.88 107.169 22.98L107.039 24.31C106.999 24.4767 106.899 24.56 106.739 24.56C106.646 24.56 106.509 24.54 106.329 24.5C106.149 24.46 105.946 24.44 105.719 24.44C105.399 24.44 105.112 24.4867 104.859 24.58C104.612 24.6733 104.389 24.8133 104.189 25C103.996 25.18 103.819 25.4067 103.659 25.68C103.506 25.9467 103.366 26.2533 103.239 26.6V33H101.449V22.87H102.469C102.662 22.87 102.796 22.9067 102.869 22.98C102.942 23.0533 102.992 23.18 103.019 23.36L103.139 24.9ZM121.172 20.91C121.112 21.01 121.045 21.0867 120.972 21.14C120.905 21.1867 120.822 21.21 120.722 21.21C120.608 21.21 120.475 21.1533 120.322 21.04C120.168 20.9267 119.975 20.8033 119.742 20.67C119.515 20.53 119.238 20.4033 118.912 20.29C118.592 20.1767 118.202 20.12 117.742 20.12C117.308 20.12 116.925 20.18 116.592 20.3C116.265 20.4133 115.988 20.57 115.762 20.77C115.542 20.97 115.375 21.2067 115.262 21.48C115.148 21.7467 115.092 22.0367 115.092 22.35C115.092 22.75 115.188 23.0833 115.382 23.35C115.582 23.61 115.842 23.8333 116.162 24.02C116.488 24.2067 116.855 24.37 117.262 24.51C117.675 24.6433 118.095 24.7833 118.522 24.93C118.955 25.0767 119.375 25.2433 119.782 25.43C120.195 25.61 120.562 25.84 120.882 26.12C121.208 26.4 121.468 26.7433 121.662 27.15C121.862 27.5567 121.962 28.0567 121.962 28.65C121.962 29.2767 121.855 29.8667 121.642 30.42C121.428 30.9667 121.115 31.4433 120.702 31.85C120.295 32.2567 119.792 32.5767 119.192 32.81C118.598 33.0433 117.922 33.16 117.162 33.16C116.228 33.16 115.382 32.9933 114.622 32.66C113.862 32.32 113.212 31.8633 112.672 31.29L113.232 30.37C113.285 30.2967 113.348 30.2367 113.422 30.19C113.502 30.1367 113.588 30.11 113.682 30.11C113.768 30.11 113.865 30.1467 113.972 30.22C114.085 30.2867 114.212 30.3733 114.352 30.48C114.492 30.5867 114.652 30.7033 114.832 30.83C115.012 30.9567 115.215 31.0733 115.442 31.18C115.675 31.2867 115.938 31.3767 116.232 31.45C116.525 31.5167 116.855 31.55 117.222 31.55C117.682 31.55 118.092 31.4867 118.452 31.36C118.812 31.2333 119.115 31.0567 119.362 30.83C119.615 30.5967 119.808 30.32 119.942 30C120.075 29.68 120.142 29.3233 120.142 28.93C120.142 28.4967 120.042 28.1433 119.842 27.87C119.648 27.59 119.392 27.3567 119.072 27.17C118.752 26.9833 118.385 26.8267 117.972 26.7C117.558 26.5667 117.138 26.4333 116.712 26.3C116.285 26.16 115.865 26 115.452 25.82C115.038 25.64 114.672 25.4067 114.352 25.12C114.032 24.8333 113.772 24.4767 113.572 24.05C113.378 23.6167 113.282 23.0833 113.282 22.45C113.282 21.9433 113.378 21.4533 113.572 20.98C113.772 20.5067 114.058 20.0867 114.432 19.72C114.812 19.3533 115.275 19.06 115.822 18.84C116.375 18.62 117.008 18.51 117.722 18.51C118.522 18.51 119.248 18.6367 119.902 18.89C120.562 19.1433 121.142 19.51 121.642 19.99L121.172 20.91ZM126.942 33.16C126.142 33.16 125.525 32.9367 125.092 32.49C124.665 32.0433 124.452 31.4 124.452 30.56V24.36H123.232C123.125 24.36 123.035 24.33 122.962 24.27C122.889 24.2033 122.852 24.1033 122.852 23.97V23.26L124.512 23.05L124.922 19.92C124.942 19.82 124.985 19.74 125.052 19.68C125.125 19.6133 125.219 19.58 125.332 19.58H126.232V23.07H129.162V24.36H126.232V30.44C126.232 30.8667 126.335 31.1833 126.542 31.39C126.749 31.5967 127.015 31.7 127.342 31.7C127.529 31.7 127.689 31.6767 127.822 31.63C127.962 31.5767 128.082 31.52 128.182 31.46C128.282 31.4 128.365 31.3467 128.432 31.3C128.505 31.2467 128.569 31.22 128.622 31.22C128.715 31.22 128.799 31.2767 128.872 31.39L129.392 32.24C129.085 32.5267 128.715 32.7533 128.282 32.92C127.849 33.08 127.402 33.16 126.942 33.16ZM139.33 22.87V33H138.27C138.017 33 137.857 32.8767 137.79 32.63L137.65 31.54C137.21 32.0267 136.717 32.42 136.17 32.72C135.623 33.0133 134.997 33.16 134.29 33.16C133.737 33.16 133.247 33.07 132.82 32.89C132.4 32.7033 132.047 32.4433 131.76 32.11C131.473 31.7767 131.257 31.3733 131.11 30.9C130.97 30.4267 130.9 29.9033 130.9 29.33V22.87H132.68V29.33C132.68 30.0967 132.853 30.69 133.2 31.11C133.553 31.53 134.09 31.74 134.81 31.74C135.337 31.74 135.827 31.6167 136.28 31.37C136.74 31.1167 137.163 30.77 137.55 30.33V22.87H139.33ZM148.752 25.28C148.419 24.8333 148.059 24.5233 147.672 24.35C147.286 24.17 146.852 24.08 146.372 24.08C145.432 24.08 144.709 24.4167 144.202 25.09C143.696 25.7633 143.442 26.7233 143.442 27.97C143.442 28.63 143.499 29.1967 143.612 29.67C143.726 30.1367 143.892 30.5233 144.112 30.83C144.332 31.13 144.602 31.35 144.922 31.49C145.242 31.63 145.606 31.7 146.012 31.7C146.599 31.7 147.109 31.5667 147.542 31.3C147.982 31.0333 148.386 30.6567 148.752 30.17V25.28ZM150.532 18.27V33H149.472C149.219 33 149.059 32.8767 148.992 32.63L148.832 31.4C148.399 31.92 147.906 32.34 147.352 32.66C146.799 32.98 146.159 33.14 145.432 33.14C144.852 33.14 144.326 33.03 143.852 32.81C143.379 32.5833 142.976 32.2533 142.642 31.82C142.309 31.3867 142.052 30.8467 141.872 30.2C141.692 29.5533 141.602 28.81 141.602 27.97C141.602 27.2233 141.702 26.53 141.902 25.89C142.102 25.2433 142.389 24.6833 142.762 24.21C143.136 23.7367 143.592 23.3667 144.132 23.1C144.679 22.8267 145.292 22.69 145.972 22.69C146.592 22.69 147.122 22.7967 147.562 23.01C148.009 23.2167 148.406 23.5067 148.752 23.88V18.27H150.532ZM155.224 22.87V33H153.444V22.87H155.224ZM155.604 19.69C155.604 19.8633 155.567 20.0267 155.494 20.18C155.427 20.3267 155.334 20.46 155.214 20.58C155.1 20.6933 154.964 20.7833 154.804 20.85C154.65 20.9167 154.487 20.95 154.314 20.95C154.14 20.95 153.977 20.9167 153.824 20.85C153.677 20.7833 153.547 20.6933 153.434 20.58C153.32 20.46 153.23 20.3267 153.164 20.18C153.097 20.0267 153.064 19.8633 153.064 19.69C153.064 19.5167 153.097 19.3533 153.164 19.2C153.23 19.04 153.32 18.9033 153.434 18.79C153.547 18.67 153.677 18.5767 153.824 18.51C153.977 18.4433 154.14 18.41 154.314 18.41C154.487 18.41 154.65 18.4433 154.804 18.51C154.964 18.5767 155.1 18.67 155.214 18.79C155.334 18.9033 155.427 19.04 155.494 19.2C155.567 19.3533 155.604 19.5167 155.604 19.69ZM164.928 26.83C164.928 26.4167 164.868 26.04 164.748 25.7C164.635 25.3533 164.465 25.0567 164.238 24.81C164.018 24.5567 163.748 24.3633 163.428 24.23C163.108 24.09 162.745 24.02 162.338 24.02C161.485 24.02 160.808 24.27 160.308 24.77C159.815 25.2633 159.508 25.95 159.388 26.83H164.928ZM166.368 31.58C166.148 31.8467 165.885 32.08 165.578 32.28C165.272 32.4733 164.942 32.6333 164.588 32.76C164.242 32.8867 163.882 32.98 163.508 33.04C163.135 33.1067 162.765 33.14 162.398 33.14C161.698 33.14 161.052 33.0233 160.458 32.79C159.872 32.55 159.362 32.2033 158.928 31.75C158.502 31.29 158.168 30.7233 157.928 30.05C157.688 29.3767 157.568 28.6033 157.568 27.73C157.568 27.0233 157.675 26.3633 157.888 25.75C158.108 25.1367 158.422 24.6067 158.828 24.16C159.235 23.7067 159.732 23.3533 160.318 23.1C160.905 22.84 161.565 22.71 162.298 22.71C162.905 22.71 163.465 22.8133 163.978 23.02C164.498 23.22 164.945 23.5133 165.318 23.9C165.698 24.28 165.995 24.7533 166.208 25.32C166.422 25.88 166.528 26.52 166.528 27.24C166.528 27.52 166.498 27.7067 166.438 27.8C166.378 27.8933 166.265 27.94 166.098 27.94H159.328C159.348 28.58 159.435 29.1367 159.588 29.61C159.748 30.0833 159.968 30.48 160.248 30.8C160.528 31.1133 160.862 31.35 161.248 31.51C161.635 31.6633 162.068 31.74 162.548 31.74C162.995 31.74 163.378 31.69 163.698 31.59C164.025 31.4833 164.305 31.37 164.538 31.25C164.772 31.13 164.965 31.02 165.118 30.92C165.278 30.8133 165.415 30.76 165.528 30.76C165.675 30.76 165.788 30.8167 165.868 30.93L166.368 31.58ZM174.615 24.54C174.535 24.6867 174.411 24.76 174.245 24.76C174.145 24.76 174.031 24.7233 173.905 24.65C173.778 24.5767 173.621 24.4967 173.435 24.41C173.255 24.3167 173.038 24.2333 172.785 24.16C172.531 24.08 172.231 24.04 171.885 24.04C171.585 24.04 171.315 24.08 171.075 24.16C170.835 24.2333 170.628 24.3367 170.455 24.47C170.288 24.6033 170.158 24.76 170.065 24.94C169.978 25.1133 169.935 25.3033 169.935 25.51C169.935 25.77 170.008 25.9867 170.155 26.16C170.308 26.3333 170.508 26.4833 170.755 26.61C171.001 26.7367 171.281 26.85 171.595 26.95C171.908 27.0433 172.228 27.1467 172.555 27.26C172.888 27.3667 173.211 27.4867 173.525 27.62C173.838 27.7533 174.118 27.92 174.365 28.12C174.611 28.32 174.808 28.5667 174.955 28.86C175.108 29.1467 175.185 29.4933 175.185 29.9C175.185 30.3667 175.101 30.8 174.935 31.2C174.768 31.5933 174.521 31.9367 174.195 32.23C173.868 32.5167 173.468 32.7433 172.995 32.91C172.521 33.0767 171.975 33.16 171.355 33.16C170.648 33.16 170.008 33.0467 169.435 32.82C168.861 32.5867 168.375 32.29 167.975 31.93L168.395 31.25C168.448 31.1633 168.511 31.0967 168.585 31.05C168.658 31.0033 168.751 30.98 168.865 30.98C168.985 30.98 169.111 31.0267 169.245 31.12C169.378 31.2133 169.538 31.3167 169.725 31.43C169.918 31.5433 170.151 31.6467 170.425 31.74C170.698 31.8333 171.038 31.88 171.445 31.88C171.791 31.88 172.095 31.8367 172.355 31.75C172.615 31.6567 172.831 31.5333 173.005 31.38C173.178 31.2267 173.305 31.05 173.385 30.85C173.471 30.65 173.515 30.4367 173.515 30.21C173.515 29.93 173.438 29.7 173.285 29.52C173.138 29.3333 172.941 29.1767 172.695 29.05C172.448 28.9167 172.165 28.8033 171.845 28.71C171.531 28.61 171.208 28.5067 170.875 28.4C170.548 28.2933 170.225 28.1733 169.905 28.04C169.591 27.9 169.311 27.7267 169.065 27.52C168.818 27.3133 168.618 27.06 168.465 26.76C168.318 26.4533 168.245 26.0833 168.245 25.65C168.245 25.2633 168.325 24.8933 168.485 24.54C168.645 24.18 168.878 23.8667 169.185 23.6C169.491 23.3267 169.868 23.11 170.315 22.95C170.761 22.79 171.271 22.71 171.845 22.71C172.511 22.71 173.108 22.8167 173.635 23.03C174.168 23.2367 174.628 23.5233 175.015 23.89L174.615 24.54Z" fill="#2E2E2E"/>
<path d="M33.5273 53.84C33.5273 54.9133 33.3573 55.89 33.0173 56.77C32.6773 57.65 32.1973 58.4033 31.5773 59.03C30.9573 59.6567 30.2107 60.1433 29.3373 60.49C28.4707 60.83 27.5107 61 26.4573 61H21.1073V46.67H26.4573C27.5107 46.67 28.4707 46.8433 29.3373 47.19C30.2107 47.53 30.9573 48.0167 31.5773 48.65C32.1973 49.2767 32.6773 50.03 33.0173 50.91C33.3573 51.79 33.5273 52.7667 33.5273 53.84ZM31.5373 53.84C31.5373 52.96 31.4173 52.1733 31.1773 51.48C30.9373 50.7867 30.5973 50.2 30.1573 49.72C29.7173 49.24 29.184 48.8733 28.5573 48.62C27.9307 48.3667 27.2307 48.24 26.4573 48.24H23.0473V59.43H26.4573C27.2307 59.43 27.9307 59.3033 28.5573 59.05C29.184 58.7967 29.7173 58.4333 30.1573 57.96C30.5973 57.48 30.9373 56.8933 31.1773 56.2C31.4173 55.5067 31.5373 54.72 31.5373 53.84ZM42.5455 54.83C42.5455 54.4167 42.4855 54.04 42.3655 53.7C42.2521 53.3533 42.0821 53.0567 41.8555 52.81C41.6355 52.5567 41.3655 52.3633 41.0455 52.23C40.7255 52.09 40.3621 52.02 39.9555 52.02C39.1021 52.02 38.4255 52.27 37.9255 52.77C37.4321 53.2633 37.1255 53.95 37.0055 54.83H42.5455ZM43.9855 59.58C43.7655 59.8467 43.5021 60.08 43.1955 60.28C42.8888 60.4733 42.5588 60.6333 42.2055 60.76C41.8588 60.8867 41.4988 60.98 41.1255 61.04C40.7521 61.1067 40.3821 61.14 40.0155 61.14C39.3155 61.14 38.6688 61.0233 38.0755 60.79C37.4888 60.55 36.9788 60.2033 36.5455 59.75C36.1188 59.29 35.7855 58.7233 35.5455 58.05C35.3055 57.3767 35.1855 56.6033 35.1855 55.73C35.1855 55.0233 35.2921 54.3633 35.5055 53.75C35.7255 53.1367 36.0388 52.6067 36.4455 52.16C36.8521 51.7067 37.3488 51.3533 37.9355 51.1C38.5221 50.84 39.1821 50.71 39.9155 50.71C40.5221 50.71 41.0821 50.8133 41.5955 51.02C42.1155 51.22 42.5621 51.5133 42.9355 51.9C43.3155 52.28 43.6121 52.7533 43.8255 53.32C44.0388 53.88 44.1455 54.52 44.1455 55.24C44.1455 55.52 44.1155 55.7067 44.0555 55.8C43.9955 55.8933 43.8821 55.94 43.7155 55.94H36.9455C36.9655 56.58 37.0521 57.1367 37.2055 57.61C37.3655 58.0833 37.5855 58.48 37.8655 58.8C38.1455 59.1133 38.4788 59.35 38.8655 59.51C39.2521 59.6633 39.6855 59.74 40.1655 59.74C40.6121 59.74 40.9955 59.69 41.3155 59.59C41.6421 59.4833 41.9221 59.37 42.1555 59.25C42.3888 59.13 42.5821 59.02 42.7355 58.92C42.8955 58.8133 43.0321 58.76 43.1455 58.76C43.2921 58.76 43.4055 58.8167 43.4855 58.93L43.9855 59.58ZM48.1219 58.56C48.4485 59 48.8052 59.31 49.1919 59.49C49.5785 59.67 50.0119 59.76 50.4919 59.76C51.4385 59.76 52.1652 59.4233 52.6719 58.75C53.1785 58.0767 53.4319 57.1167 53.4319 55.87C53.4319 55.21 53.3719 54.6433 53.2519 54.17C53.1385 53.6967 52.9719 53.31 52.7519 53.01C52.5319 52.7033 52.2619 52.48 51.9419 52.34C51.6219 52.2 51.2585 52.13 50.8519 52.13C50.2719 52.13 49.7619 52.2633 49.3219 52.53C48.8885 52.7967 48.4885 53.1733 48.1219 53.66V58.56ZM48.0319 52.44C48.4585 51.9133 48.9519 51.49 49.5119 51.17C50.0719 50.85 50.7119 50.69 51.4319 50.69C52.0185 50.69 52.5485 50.8033 53.0219 51.03C53.4952 51.25 53.8985 51.58 54.2319 52.02C54.5652 52.4533 54.8219 52.9933 55.0019 53.64C55.1819 54.2867 55.2719 55.03 55.2719 55.87C55.2719 56.6167 55.1719 57.3133 54.9719 57.96C54.7719 58.6 54.4819 59.1567 54.1019 59.63C53.7285 60.0967 53.2685 60.4667 52.7219 60.74C52.1819 61.0067 51.5719 61.14 50.8919 61.14C50.2719 61.14 49.7385 61.0367 49.2919 60.83C48.8519 60.6167 48.4619 60.3233 48.1219 59.95V64.43H46.3319V50.87H47.4019C47.6552 50.87 47.8119 50.9933 47.8719 51.24L48.0319 52.44ZM63.0328 56.44C62.2128 56.4667 61.5128 56.5333 60.9328 56.64C60.3595 56.74 59.8895 56.8733 59.5228 57.04C59.1628 57.2067 58.8995 57.4033 58.7328 57.63C58.5728 57.8567 58.4928 58.11 58.4928 58.39C58.4928 58.6567 58.5361 58.8867 58.6228 59.08C58.7095 59.2733 58.8261 59.4333 58.9728 59.56C59.1261 59.68 59.3028 59.77 59.5028 59.83C59.7095 59.8833 59.9295 59.91 60.1628 59.91C60.4761 59.91 60.7628 59.88 61.0228 59.82C61.2828 59.7533 61.5261 59.66 61.7528 59.54C61.9861 59.42 62.2061 59.2767 62.4128 59.11C62.6261 58.9433 62.8328 58.7533 63.0328 58.54V56.44ZM57.2828 52.3C57.8428 51.76 58.4461 51.3567 59.0928 51.09C59.7395 50.8233 60.4561 50.69 61.2428 50.69C61.8095 50.69 62.3128 50.7833 62.7528 50.97C63.1928 51.1567 63.5628 51.4167 63.8628 51.75C64.1628 52.0833 64.3895 52.4867 64.5428 52.96C64.6961 53.4333 64.7728 53.9533 64.7728 54.52V61H63.9828C63.8095 61 63.6761 60.9733 63.5828 60.92C63.4895 60.86 63.4161 60.7467 63.3628 60.58L63.1628 59.62C62.8961 59.8667 62.6361 60.0867 62.3828 60.28C62.1295 60.4667 61.8628 60.6267 61.5828 60.76C61.3028 60.8867 61.0028 60.9833 60.6828 61.05C60.3695 61.1233 60.0195 61.16 59.6328 61.16C59.2395 61.16 58.8695 61.1067 58.5228 61C58.1761 60.8867 57.8728 60.72 57.6128 60.5C57.3595 60.28 57.1561 60.0033 57.0028 59.67C56.8561 59.33 56.7828 58.93 56.7828 58.47C56.7828 58.07 56.8928 57.6867 57.1128 57.32C57.3328 56.9467 57.6895 56.6167 58.1828 56.33C58.6761 56.0433 59.3195 55.81 60.1128 55.63C60.9061 55.4433 61.8795 55.3367 63.0328 55.31V54.52C63.0328 53.7333 62.8628 53.14 62.5228 52.74C62.1828 52.3333 61.6861 52.13 61.0328 52.13C60.5928 52.13 60.2228 52.1867 59.9228 52.3C59.6295 52.4067 59.3728 52.53 59.1528 52.67C58.9395 52.8033 58.7528 52.9267 58.5928 53.04C58.4395 53.1467 58.2861 53.2 58.1328 53.2C58.0128 53.2 57.9095 53.17 57.8228 53.11C57.7361 53.0433 57.6628 52.9633 57.6028 52.87L57.2828 52.3ZM69.1742 52.9C69.4942 52.2067 69.8876 51.6667 70.3542 51.28C70.8209 50.8867 71.3909 50.69 72.0642 50.69C72.2776 50.69 72.4809 50.7133 72.6742 50.76C72.8742 50.8067 73.0509 50.88 73.2042 50.98L73.0742 52.31C73.0342 52.4767 72.9342 52.56 72.7742 52.56C72.6809 52.56 72.5442 52.54 72.3642 52.5C72.1842 52.46 71.9809 52.44 71.7542 52.44C71.4342 52.44 71.1476 52.4867 70.8942 52.58C70.6476 52.6733 70.4242 52.8133 70.2242 53C70.0309 53.18 69.8542 53.4067 69.6942 53.68C69.5409 53.9467 69.4009 54.2533 69.2742 54.6V61H67.4842V50.87H68.5042C68.6976 50.87 68.8309 50.9067 68.9042 50.98C68.9776 51.0533 69.0276 51.18 69.0542 51.36L69.1742 52.9ZM77.8794 61.16C77.0794 61.16 76.4627 60.9367 76.0294 60.49C75.6027 60.0433 75.3894 59.4 75.3894 58.56V52.36H74.1694C74.0627 52.36 73.9727 52.33 73.8994 52.27C73.826 52.2033 73.7894 52.1033 73.7894 51.97V51.26L75.4494 51.05L75.8594 47.92C75.8794 47.82 75.9227 47.74 75.9894 47.68C76.0627 47.6133 76.156 47.58 76.2694 47.58H77.1694V51.07H80.0994V52.36H77.1694V58.44C77.1694 58.8667 77.2727 59.1833 77.4794 59.39C77.686 59.5967 77.9527 59.7 78.2794 59.7C78.466 59.7 78.626 59.6767 78.7594 59.63C78.8994 59.5767 79.0194 59.52 79.1194 59.46C79.2194 59.4 79.3027 59.3467 79.3694 59.3C79.4427 59.2467 79.506 59.22 79.5594 59.22C79.6527 59.22 79.736 59.2767 79.8094 59.39L80.3294 60.24C80.0227 60.5267 79.6527 60.7533 79.2194 60.92C78.786 61.08 78.3394 61.16 77.8794 61.16ZM81.9373 61V50.87H83.0073C83.2607 50.87 83.4173 50.9933 83.4773 51.24L83.6073 52.28C83.9807 51.82 84.4007 51.4433 84.8673 51.15C85.334 50.8567 85.874 50.71 86.4873 50.71C87.1673 50.71 87.7173 50.9 88.1373 51.28C88.564 51.66 88.8707 52.1733 89.0573 52.82C89.204 52.4533 89.3907 52.1367 89.6173 51.87C89.8507 51.6033 90.1107 51.3833 90.3973 51.21C90.684 51.0367 90.9873 50.91 91.3073 50.83C91.634 50.75 91.964 50.71 92.2973 50.71C92.8307 50.71 93.304 50.7967 93.7173 50.97C94.1373 51.1367 94.4907 51.3833 94.7773 51.71C95.0707 52.0367 95.294 52.44 95.4473 52.92C95.6007 53.3933 95.6773 53.9367 95.6773 54.55V61H93.8873V54.55C93.8873 53.7567 93.714 53.1567 93.3673 52.75C93.0207 52.3367 92.5207 52.13 91.8673 52.13C91.574 52.13 91.294 52.1833 91.0273 52.29C90.7673 52.39 90.5373 52.54 90.3373 52.74C90.1373 52.94 89.9773 53.1933 89.8573 53.5C89.744 53.8 89.6873 54.15 89.6873 54.55V61H87.8973V54.55C87.8973 53.7367 87.734 53.13 87.4073 52.73C87.0807 52.33 86.604 52.13 85.9773 52.13C85.5373 52.13 85.1307 52.25 84.7573 52.49C84.384 52.7233 84.0407 53.0433 83.7273 53.45V61H81.9373ZM105.163 54.83C105.163 54.4167 105.103 54.04 104.983 53.7C104.869 53.3533 104.699 53.0567 104.473 52.81C104.253 52.5567 103.983 52.3633 103.663 52.23C103.343 52.09 102.979 52.02 102.573 52.02C101.719 52.02 101.043 52.27 100.543 52.77C100.049 53.2633 99.7427 53.95 99.6227 54.83H105.163ZM106.603 59.58C106.383 59.8467 106.119 60.08 105.813 60.28C105.506 60.4733 105.176 60.6333 104.823 60.76C104.476 60.8867 104.116 60.98 103.743 61.04C103.369 61.1067 102.999 61.14 102.633 61.14C101.933 61.14 101.286 61.0233 100.693 60.79C100.106 60.55 99.596 60.2033 99.1627 59.75C98.736 59.29 98.4027 58.7233 98.1627 58.05C97.9227 57.3767 97.8027 56.6033 97.8027 55.73C97.8027 55.0233 97.9093 54.3633 98.1227 53.75C98.3427 53.1367 98.656 52.6067 99.0627 52.16C99.4693 51.7067 99.966 51.3533 100.553 51.1C101.139 50.84 101.799 50.71 102.533 50.71C103.139 50.71 103.699 50.8133 104.213 51.02C104.733 51.22 105.179 51.5133 105.553 51.9C105.933 52.28 106.229 52.7533 106.443 53.32C106.656 53.88 106.763 54.52 106.763 55.24C106.763 55.52 106.733 55.7067 106.673 55.8C106.613 55.8933 106.499 55.94 106.333 55.94H99.5627C99.5827 56.58 99.6693 57.1367 99.8227 57.61C99.9827 58.0833 100.203 58.48 100.483 58.8C100.763 59.1133 101.096 59.35 101.483 59.51C101.869 59.6633 102.303 59.74 102.783 59.74C103.229 59.74 103.613 59.69 103.933 59.59C104.259 59.4833 104.539 59.37 104.773 59.25C105.006 59.13 105.199 59.02 105.353 58.92C105.513 58.8133 105.649 58.76 105.763 58.76C105.909 58.76 106.023 58.8167 106.103 58.93L106.603 59.58ZM110.629 52.34C110.849 52.0933 111.082 51.87 111.329 51.67C111.576 51.47 111.836 51.3 112.109 51.16C112.389 51.0133 112.682 50.9033 112.989 50.83C113.302 50.75 113.639 50.71 113.999 50.71C114.552 50.71 115.039 50.8033 115.459 50.99C115.886 51.17 116.239 51.43 116.519 51.77C116.806 52.1033 117.022 52.5067 117.169 52.98C117.316 53.4533 117.389 53.9767 117.389 54.55V61H115.599V54.55C115.599 53.7833 115.422 53.19 115.069 52.77C114.722 52.3433 114.192 52.13 113.479 52.13C112.952 52.13 112.459 52.2567 111.999 52.51C111.546 52.7633 111.126 53.1067 110.739 53.54V61H108.949V50.87H110.019C110.272 50.87 110.429 50.9933 110.489 51.24L110.629 52.34ZM123.075 61.16C122.275 61.16 121.658 60.9367 121.225 60.49C120.798 60.0433 120.585 59.4 120.585 58.56V52.36H119.365C119.258 52.36 119.168 52.33 119.095 52.27C119.021 52.2033 118.985 52.1033 118.985 51.97V51.26L120.645 51.05L121.055 47.92C121.075 47.82 121.118 47.74 121.185 47.68C121.258 47.6133 121.351 47.58 121.465 47.58H122.365V51.07H125.295V52.36H122.365V58.44C122.365 58.8667 122.468 59.1833 122.675 59.39C122.881 59.5967 123.148 59.7 123.475 59.7C123.661 59.7 123.821 59.6767 123.955 59.63C124.095 59.5767 124.215 59.52 124.315 59.46C124.415 59.4 124.498 59.3467 124.565 59.3C124.638 59.2467 124.701 59.22 124.755 59.22C124.848 59.22 124.931 59.2767 125.005 59.39L125.525 60.24C125.218 60.5267 124.848 60.7533 124.415 60.92C123.981 61.08 123.535 61.16 123.075 61.16Z" fill="#2E2E2E"/>
<line x1="322" y1="105.5" y2="105.5" stroke="#BFBFBF"/>
<circle cx="253" cy="102" r="50" fill="#E6B800"/>
<path d="M272.188 119.375C272.188 119.375 275 119.375 275 116.562C275 113.75 272.188 105.312 260.938 105.312C249.688 105.312 246.875 113.75 246.875 116.562C246.875 119.375 249.688 119.375 249.688 119.375H272.188ZM249.75 116.562C249.741 116.561 249.727 116.56 249.71 116.557C249.703 116.556 249.695 116.554 249.688 116.553C249.692 115.81 250.157 113.657 251.823 111.713C253.381 109.895 256.108 108.125 260.938 108.125C265.767 108.125 268.494 109.895 270.052 111.713C271.718 113.657 272.183 115.81 272.187 116.553C272.18 116.554 272.172 116.556 272.165 116.557C272.148 116.56 272.134 116.561 272.125 116.562H249.75Z" fill="#7B5C00"/>
<path d="M260.938 99.6875C264.044 99.6875 266.562 97.1691 266.562 94.0625C266.562 90.9559 264.044 88.4375 260.938 88.4375C257.831 88.4375 255.312 90.9559 255.312 94.0625C255.312 97.1691 257.831 99.6875 260.938 99.6875ZM269.375 94.0625C269.375 98.7224 265.597 102.5 260.938 102.5C256.278 102.5 252.5 98.7224 252.5 94.0625C252.5 89.4026 256.278 85.625 260.938 85.625C265.597 85.625 269.375 89.4026 269.375 94.0625Z" fill="#7B5C00"/>
<path d="M249.507 106.1C248.473 105.769 247.324 105.528 246.049 105.405C245.418 105.345 244.756 105.312 244.062 105.312C232.812 105.312 230 113.75 230 116.562C230 118.438 230.938 119.375 232.812 119.375H244.671C244.275 118.576 244.062 117.629 244.062 116.562C244.062 113.721 245.124 110.819 247.128 108.396C247.812 107.567 248.607 106.795 249.507 106.1ZM243.838 108.126C242.157 110.695 241.25 113.623 241.25 116.562H232.812C232.812 115.829 233.274 113.666 234.948 111.713C236.482 109.923 239.148 108.18 243.838 108.126Z" fill="#7B5C00"/>
<path d="M234.219 95.4688C234.219 90.8088 237.996 87.0312 242.656 87.0312C247.316 87.0312 251.094 90.8088 251.094 95.4688C251.094 100.129 247.316 103.906 242.656 103.906C237.996 103.906 234.219 100.129 234.219 95.4688ZM242.656 89.8438C239.55 89.8438 237.031 92.3621 237.031 95.4688C237.031 98.5754 239.55 101.094 242.656 101.094C245.763 101.094 248.281 98.5754 248.281 95.4688C248.281 92.3621 245.763 89.8438 242.656 89.8438Z" fill="#7B5C00"/>
</svg>
