<svg width="128" height="34" viewBox="0 0 128 34" fill="none" xmlns="http://www.w3.org/2000/svg">
                            <path d="M0 16.9908C0 8.03609 7.25924 0.776855 16.214 0.776855H111.181C120.136 0.776855 127.395 8.03609 127.395 16.9908C127.395 25.9455 120.136 33.2048 111.181 33.2048H16.214C7.25925 33.2048 0 25.9455 0 16.9908Z" fill="#D9D9D9" />
                            <path d="M28.9534 16.9907C28.9534 22.1077 24.8053 26.2558 19.6883 26.2558C14.5714 26.2558 10.4232 22.1077 10.4232 16.9907C10.4232 11.8737 14.5714 7.72559 19.6883 7.72559C24.8053 7.72559 28.9534 11.8737 28.9534 16.9907ZM24.356 13.4812C24.0168 13.1419 23.4668 13.1419 23.1276 13.4812C23.1194 13.4893 23.1117 13.498 23.1046 13.5071L19.0831 18.6315L16.6585 16.2069C16.3193 15.8677 15.7693 15.8677 15.4301 16.2069C15.0909 16.5461 15.0909 17.0961 15.4301 17.4353L18.4951 20.5002C18.8343 20.8395 19.3842 20.8395 19.7235 20.5002C19.731 20.4927 19.7381 20.4847 19.7448 20.4764L24.3683 14.697C24.6952 14.3569 24.6911 13.8162 24.356 13.4812Z" fill="black" />
                            <path d="M46.4831 18.4043L44.7893 14.0156C44.7391 13.8851 44.6864 13.7345 44.6312 13.5639C44.576 13.3882 44.5233 13.2025 44.4731 13.0068C44.3677 13.4133 44.2598 13.7521 44.1494 14.0231L42.4556 18.4043H46.4831ZM49.5243 22.4092H48.3951C48.2647 22.4092 48.1593 22.3766 48.079 22.3113C47.9987 22.2461 47.9384 22.1633 47.8983 22.0629L46.8896 19.4582H42.0491L41.0404 22.0629C41.0103 22.1532 40.9526 22.2335 40.8672 22.3038C40.7819 22.374 40.6765 22.4092 40.5511 22.4092H39.4219L43.7354 11.6217H45.2108L49.5243 22.4092ZM52.5127 22.5296C51.9104 22.5296 51.4462 22.3615 51.12 22.0253C50.7988 21.689 50.6382 21.2047 50.6382 20.5724V15.9051H49.7198C49.6395 15.9051 49.5718 15.8825 49.5166 15.8373C49.4614 15.7871 49.4338 15.7119 49.4338 15.6115V15.077L50.6834 14.9189L50.992 12.5627C51.0071 12.4874 51.0397 12.4272 51.0899 12.382C51.1451 12.3318 51.2154 12.3067 51.3007 12.3067H51.9782V14.934H55.569L55.8776 12.5627C55.8927 12.4874 55.9253 12.4272 55.9755 12.382C56.0307 12.3318 56.101 12.3067 56.1863 12.3067H56.8638V14.934H59.0695V15.9051H56.8638V20.482C56.8638 20.8032 56.9416 21.0416 57.0972 21.1972C57.2578 21.3528 57.4585 21.4306 57.6994 21.4306C57.8399 21.4306 57.9604 21.413 58.0607 21.3779C58.1661 21.3377 58.2565 21.295 58.3317 21.2499C58.407 21.2047 58.4698 21.1646 58.5199 21.1294C58.5751 21.0893 58.6228 21.0692 58.663 21.0692C58.7382 21.0692 58.801 21.1119 58.8512 21.1972L59.2501 21.8371C59.0143 22.0529 58.7332 22.2235 58.407 22.349C58.0808 22.4694 57.7446 22.5296 57.3983 22.5296C56.8011 22.5296 56.3394 22.3615 56.0131 22.0253C55.6869 21.689 55.5238 21.2047 55.5238 20.5724V15.9051H51.9782V20.482C51.9782 20.8032 52.056 21.0416 52.2116 21.1972C52.3671 21.3528 52.5679 21.4306 52.8138 21.4306C52.9543 21.4306 53.0748 21.413 53.1751 21.3779C53.2805 21.3377 53.3709 21.295 53.4461 21.2499C53.5214 21.2047 53.5841 21.1646 53.6343 21.1294C53.6895 21.0893 53.7372 21.0692 53.7774 21.0692C53.8476 21.0692 53.9104 21.1119 53.9656 21.1972L54.357 21.8371C54.1262 22.0529 53.8476 22.2235 53.5214 22.349C53.1952 22.4694 52.859 22.5296 52.5127 22.5296ZM65.5087 17.7645C65.5087 17.4533 65.4635 17.1698 65.3732 16.9138C65.2878 16.6528 65.1599 16.4295 64.9892 16.2438C64.8236 16.0531 64.6204 15.9076 64.3795 15.8072C64.1386 15.7018 63.8651 15.6491 63.5589 15.6491C62.9165 15.6491 62.4072 15.8373 62.0308 16.2137C61.6594 16.5851 61.4285 17.102 61.3382 17.7645H65.5087ZM66.5927 21.3402C66.4271 21.541 66.2288 21.7166 65.998 21.8672C65.7671 22.0127 65.5187 22.1332 65.2527 22.2285C64.9917 22.3239 64.7207 22.3941 64.4397 22.4393C64.1587 22.4895 63.8801 22.5146 63.6041 22.5146C63.0771 22.5146 62.5903 22.4267 62.1437 22.2511C61.702 22.0704 61.3181 21.8095 60.9919 21.4682C60.6707 21.1219 60.4198 20.6953 60.2391 20.1884C60.0585 19.6816 59.9681 19.0994 59.9681 18.442C59.9681 17.91 60.0484 17.4132 60.209 16.9514C60.3746 16.4897 60.6105 16.0908 60.9166 15.7545C61.2228 15.4132 61.5967 15.1473 62.0383 14.9566C62.4799 14.7608 62.9768 14.663 63.5288 14.663C63.9855 14.663 64.4071 14.7408 64.7935 14.8963C65.185 15.0469 65.5212 15.2677 65.8022 15.5588C66.0883 15.8448 66.3116 16.2012 66.4722 16.6277C66.6328 17.0493 66.7131 17.5311 66.7131 18.0731C66.7131 18.2839 66.6905 18.4244 66.6454 18.4947C66.6002 18.5649 66.5149 18.6001 66.3894 18.6001H61.293C61.3081 19.0818 61.3733 19.5009 61.4888 19.8572C61.6092 20.2135 61.7748 20.5121 61.9856 20.753C62.1964 20.9889 62.4473 21.1671 62.7384 21.2875C63.0295 21.4029 63.3557 21.4607 63.717 21.4607C64.0533 21.4607 64.3418 21.423 64.5827 21.3477C64.8286 21.2674 65.0394 21.1821 65.2151 21.0918C65.3907 21.0015 65.5363 20.9187 65.6517 20.8434C65.7721 20.7631 65.875 20.7229 65.9603 20.7229C66.0707 20.7229 66.1561 20.7656 66.2163 20.8509L66.5927 21.3402ZM69.6237 15.89C69.7893 15.7043 69.965 15.5362 70.1507 15.3856C70.3364 15.2351 70.5321 15.1071 70.7378 15.0017C70.9486 14.8913 71.1694 14.8085 71.4003 14.7533C71.6362 14.6931 71.8896 14.663 72.1606 14.663C72.5772 14.663 72.9435 14.7332 73.2597 14.8737C73.5809 15.0092 73.8469 15.205 74.0577 15.4609C74.2735 15.7119 74.4366 16.0155 74.547 16.3718C74.6574 16.7281 74.7126 17.1221 74.7126 17.5537V22.4092H73.3651V17.5537C73.3651 16.9765 73.2321 16.5299 72.9661 16.2137C72.7051 15.8925 72.3062 15.7319 71.7692 15.7319C71.3727 15.7319 71.0013 15.8273 70.655 16.018C70.3138 16.2087 69.9976 16.4672 69.7065 16.7934V22.4092H68.359V14.7834H69.1645C69.3552 14.7834 69.4732 14.8763 69.5183 15.0619L69.6237 15.89ZM81.7228 16.5976C81.4719 16.2614 81.2009 16.028 80.9098 15.8975C80.6187 15.762 80.2925 15.6943 79.9312 15.6943C79.2236 15.6943 78.679 15.9477 78.2976 16.4546C77.9162 16.9615 77.7255 17.6842 77.7255 18.6226C77.7255 19.1195 77.7682 19.5461 77.8535 19.9024C77.9388 20.2537 78.0643 20.5448 78.2299 20.7756C78.3955 21.0015 78.5987 21.1671 78.8396 21.2725C79.0805 21.3779 79.354 21.4306 79.6602 21.4306C80.1018 21.4306 80.4857 21.3302 80.812 21.1294C81.1432 20.9287 81.4468 20.6451 81.7228 20.2788V16.5976ZM83.0628 11.3206V22.4092H82.2648C82.0741 22.4092 81.9537 22.3163 81.9035 22.1306L81.7831 21.2047C81.4568 21.5962 81.0855 21.9123 80.6689 22.1532C80.2524 22.3941 79.7706 22.5146 79.2236 22.5146C78.7869 22.5146 78.3905 22.4318 78.0342 22.2661C77.6778 22.0955 77.3742 21.8471 77.1233 21.5209C76.8723 21.1947 76.6791 20.7882 76.5436 20.3014C76.4081 19.8146 76.3404 19.255 76.3404 18.6226C76.3404 18.0606 76.4157 17.5386 76.5662 17.0568C76.7168 16.57 76.9326 16.1485 77.2136 15.7921C77.4947 15.4358 77.8384 15.1573 78.2449 14.9566C78.6565 14.7508 79.1182 14.6479 79.6301 14.6479C80.0968 14.6479 80.4958 14.7282 80.827 14.8888C81.1633 15.0444 81.4619 15.2627 81.7228 15.5437V11.3206H83.0628ZM89.312 18.9765C88.6947 18.9965 88.1678 19.0467 87.7312 19.127C87.2996 19.2023 86.9457 19.3027 86.6697 19.4281C86.3987 19.5536 86.2005 19.7016 86.075 19.8723C85.9546 20.0429 85.8943 20.2336 85.8943 20.4444C85.8943 20.6451 85.927 20.8183 85.9922 20.9638C86.0575 21.1094 86.1453 21.2298 86.2557 21.3252C86.3711 21.4155 86.5041 21.4832 86.6547 21.5284C86.8102 21.5686 86.9759 21.5886 87.1515 21.5886C87.3874 21.5886 87.6032 21.5661 87.7989 21.5209C87.9946 21.4707 88.1778 21.4004 88.3484 21.3101C88.5241 21.2198 88.6897 21.1119 88.8453 20.9864C89.0059 20.8609 89.1615 20.7179 89.312 20.5573V18.9765ZM84.9835 15.8599C85.405 15.4534 85.8592 15.1498 86.346 14.949C86.8328 14.7483 87.3723 14.6479 87.9645 14.6479C88.3911 14.6479 88.77 14.7182 89.1012 14.8587C89.4325 14.9992 89.711 15.1949 89.9368 15.4459C90.1627 15.6968 90.3333 16.0004 90.4487 16.3567C90.5642 16.7131 90.6219 17.1045 90.6219 17.5311V22.4092H90.0272C89.8967 22.4092 89.7963 22.3891 89.7261 22.349C89.6558 22.3038 89.6006 22.2185 89.5604 22.093L89.4099 21.3703C89.2091 21.556 89.0134 21.7216 88.8227 21.8672C88.632 22.0077 88.4313 22.1281 88.2205 22.2285C88.0097 22.3239 87.7839 22.3966 87.543 22.4468C87.3071 22.502 87.0436 22.5296 86.7525 22.5296C86.4564 22.5296 86.1779 22.4895 85.9169 22.4092C85.656 22.3239 85.4276 22.1984 85.2319 22.0328C85.0412 21.8672 84.8881 21.6589 84.7727 21.408C84.6623 21.152 84.6071 20.8509 84.6071 20.5046C84.6071 20.2035 84.6899 19.9149 84.8555 19.6389C85.0211 19.3579 85.2896 19.1094 85.661 18.8936C86.0324 18.6778 86.5167 18.5022 87.1139 18.3667C87.7111 18.2262 88.4438 18.1459 89.312 18.1258V17.5311C89.312 16.9389 89.184 16.4922 88.9281 16.1911C88.6721 15.885 88.2983 15.7319 87.8064 15.7319C87.4752 15.7319 87.1967 15.7746 86.9708 15.8599C86.75 15.9402 86.5568 16.033 86.3912 16.1384C86.2306 16.2388 86.0901 16.3316 85.9696 16.417C85.8542 16.4973 85.7388 16.5374 85.6233 16.5374C85.533 16.5374 85.4552 16.5148 85.39 16.4697C85.3247 16.4195 85.2695 16.3593 85.2244 16.289L84.9835 15.8599ZM93.9277 15.89C94.0933 15.7043 94.2689 15.5362 94.4546 15.3856C94.6403 15.2351 94.836 15.1071 95.0418 15.0017C95.2526 14.8913 95.4734 14.8085 95.7043 14.7533C95.9401 14.6931 96.1936 14.663 96.4646 14.663C96.8811 14.663 97.2475 14.7332 97.5637 14.8737C97.8849 15.0092 98.1508 15.205 98.3616 15.4609C98.5774 15.7119 98.7405 16.0155 98.8509 16.3718C98.9613 16.7281 99.0165 17.1221 99.0165 17.5537V22.4092H97.6691V17.5537C97.6691 16.9765 97.5361 16.5299 97.2701 16.2137C97.0091 15.8925 96.6101 15.7319 96.0731 15.7319C95.6767 15.7319 95.3053 15.8273 94.959 16.018C94.6177 16.2087 94.3016 16.4672 94.0105 16.7934V22.4092H92.663V14.7834H93.4685C93.6592 14.7834 93.7771 14.8763 93.8223 15.0619L93.9277 15.89ZM106.366 16.1384C106.325 16.1936 106.285 16.2363 106.245 16.2664C106.205 16.2965 106.15 16.3116 106.079 16.3116C106.004 16.3116 105.921 16.2815 105.831 16.2212C105.741 16.156 105.628 16.0857 105.492 16.0105C105.362 15.9352 105.199 15.8674 105.003 15.8072C104.812 15.742 104.576 15.7093 104.295 15.7093C103.919 15.7093 103.588 15.7771 103.302 15.9126C103.016 16.0431 102.775 16.2338 102.579 16.4847C102.388 16.7356 102.243 17.0393 102.142 17.3956C102.047 17.7519 101.999 18.1509 101.999 18.5925C101.999 19.0542 102.052 19.4658 102.157 19.8271C102.263 20.1834 102.411 20.4845 102.602 20.7305C102.797 20.9713 103.031 21.157 103.302 21.2875C103.578 21.413 103.886 21.4757 104.228 21.4757C104.554 21.4757 104.822 21.4381 105.033 21.3628C105.244 21.2825 105.417 21.1947 105.553 21.0993C105.693 21.004 105.808 20.9187 105.899 20.8434C105.994 20.7631 106.087 20.7229 106.177 20.7229C106.288 20.7229 106.373 20.7656 106.433 20.8509L106.81 21.3402C106.644 21.546 106.456 21.7216 106.245 21.8672C106.034 22.0127 105.806 22.1357 105.56 22.236C105.319 22.3314 105.066 22.4017 104.8 22.4468C104.534 22.492 104.263 22.5146 103.987 22.5146C103.51 22.5146 103.066 22.4267 102.654 22.2511C102.248 22.0754 101.894 21.822 101.593 21.4908C101.292 21.1545 101.056 20.743 100.885 20.2562C100.715 19.7694 100.629 19.2148 100.629 18.5925C100.629 18.0254 100.707 17.501 100.863 17.0192C101.023 16.5374 101.254 16.1234 101.555 15.7771C101.861 15.4258 102.235 15.1523 102.677 14.9566C103.124 14.7608 103.635 14.663 104.213 14.663C104.75 14.663 105.221 14.7508 105.628 14.9264C106.039 15.0971 106.403 15.3405 106.719 15.6566L106.366 16.1384ZM113.22 17.7645C113.22 17.4533 113.175 17.1698 113.084 16.9138C112.999 16.6528 112.871 16.4295 112.7 16.2438C112.535 16.0531 112.331 15.9076 112.091 15.8072C111.85 15.7018 111.576 15.6491 111.27 15.6491C110.628 15.6491 110.118 15.8373 109.742 16.2137C109.37 16.5851 109.14 17.102 109.049 17.7645H113.22ZM114.304 21.3402C114.138 21.541 113.94 21.7166 113.709 21.8672C113.478 22.0127 113.23 22.1332 112.964 22.2285C112.703 22.3239 112.432 22.3941 112.151 22.4393C111.87 22.4895 111.591 22.5146 111.315 22.5146C110.788 22.5146 110.301 22.4267 109.855 22.2511C109.413 22.0704 109.029 21.8095 108.703 21.4682C108.382 21.1219 108.131 20.6953 107.95 20.1884C107.77 19.6816 107.679 19.0994 107.679 18.442C107.679 17.91 107.759 17.4132 107.92 16.9514C108.086 16.4897 108.322 16.0908 108.628 15.7545C108.934 15.4132 109.308 15.1473 109.749 14.9566C110.191 14.7608 110.688 14.663 111.24 14.663C111.697 14.663 112.118 14.7408 112.505 14.8963C112.896 15.0469 113.232 15.2677 113.513 15.5588C113.799 15.8448 114.023 16.2012 114.183 16.6277C114.344 17.0493 114.424 17.5311 114.424 18.0731C114.424 18.2839 114.402 18.4244 114.356 18.4947C114.311 18.5649 114.226 18.6001 114.1 18.6001H109.004C109.019 19.0818 109.084 19.5009 109.2 19.8572C109.32 20.2135 109.486 20.5121 109.697 20.753C109.907 20.9889 110.158 21.1671 110.449 21.2875C110.741 21.4029 111.067 21.4607 111.428 21.4607C111.764 21.4607 112.053 21.423 112.294 21.3477C112.54 21.2674 112.75 21.1821 112.926 21.0918C113.102 21.0015 113.247 20.9187 113.363 20.8434C113.483 20.7631 113.586 20.7229 113.671 20.7229C113.782 20.7229 113.867 20.7656 113.927 20.8509L114.304 21.3402Z" fill="black" />
                        </svg>