<svg width="128" height="33" viewBox="0 0 128 33" fill="none" xmlns="http://www.w3.org/2000/svg">
                            <path d="M0.111572 16.6515C0.111572 7.69673 7.37081 0.4375 16.3255 0.4375H111.293C120.248 0.4375 127.507 7.69673 127.507 16.6515C127.507 25.6062 120.248 32.8654 111.293 32.8654H16.3255C7.37082 32.8654 0.111572 25.6062 0.111572 16.6515Z" fill="#D9D9D9" />
                            <path d="M49.644 20.5486C49.7243 20.5486 49.7946 20.5812 49.8548 20.6465L50.4345 21.2713C49.9928 21.7832 49.4558 22.1822 48.8235 22.4682C48.1962 22.7543 47.4359 22.8973 46.5425 22.8973C45.7697 22.8973 45.0671 22.7643 44.4347 22.4983C43.8024 22.2273 43.2629 21.8509 42.8162 21.3691C42.3696 20.8823 42.0233 20.3002 41.7774 19.6227C41.5315 18.9452 41.4085 18.1999 41.4085 17.3869C41.4085 16.5739 41.5365 15.8286 41.7924 15.1511C42.0484 14.4736 42.4072 13.8914 42.8689 13.4046C43.3357 12.9178 43.8927 12.5414 44.5401 12.2754C45.1875 12.0044 45.9027 11.8689 46.6856 11.8689C47.4534 11.8689 48.1309 11.9919 48.7181 12.2378C49.3053 12.4837 49.8222 12.8174 50.2689 13.239L49.7871 13.909C49.757 13.9592 49.7168 14.0018 49.6666 14.037C49.6215 14.0671 49.5587 14.0821 49.4784 14.0821C49.3881 14.0821 49.2777 14.0344 49.1472 13.9391C49.0167 13.8387 48.8461 13.7283 48.6353 13.6079C48.4245 13.4874 48.161 13.3795 47.8449 13.2842C47.5287 13.1838 47.1398 13.1336 46.6781 13.1336C46.121 13.1336 45.6116 13.2315 45.1499 13.4272C44.6882 13.6179 44.2892 13.8964 43.9529 14.2628C43.6217 14.6292 43.3633 15.0758 43.1776 15.6028C42.9919 16.1297 42.899 16.7244 42.899 17.3869C42.899 18.0594 42.9944 18.6591 43.1851 19.186C43.3808 19.713 43.6443 20.1597 43.9755 20.526C44.3118 20.8874 44.7057 21.1634 45.1574 21.3541C45.6141 21.5448 46.1059 21.6401 46.6329 21.6401C46.9541 21.6401 47.2426 21.6226 47.4986 21.5874C47.7596 21.5473 47.9979 21.4871 48.2137 21.4068C48.4346 21.3265 48.6378 21.2261 48.8235 21.1057C49.0142 20.9802 49.2024 20.8321 49.3881 20.6615C49.4734 20.5862 49.5587 20.5486 49.644 20.5486ZM55.9444 19.3441C55.3271 19.3642 54.8002 19.4144 54.3636 19.4947C53.932 19.57 53.5782 19.6703 53.3021 19.7958C53.0311 19.9213 52.8329 20.0693 52.7074 20.24C52.587 20.4106 52.5268 20.6013 52.5268 20.8121C52.5268 21.0128 52.5594 21.186 52.6246 21.3315C52.6899 21.477 52.7777 21.5975 52.8881 21.6928C53.0035 21.7832 53.1365 21.8509 53.2871 21.8961C53.4427 21.9362 53.6083 21.9563 53.7839 21.9563C54.0198 21.9563 54.2356 21.9337 54.4313 21.8886C54.627 21.8384 54.8102 21.7681 54.9809 21.6778C55.1565 21.5874 55.3221 21.4795 55.4777 21.3541C55.6383 21.2286 55.7939 21.0856 55.9444 20.925V19.3441ZM51.6159 16.2276C52.0374 15.8211 52.4916 15.5174 52.9784 15.3167C53.4652 15.116 54.0047 15.0156 54.5969 15.0156C55.0235 15.0156 55.4024 15.0858 55.7337 15.2264C56.0649 15.3669 56.3434 15.5626 56.5692 15.8135C56.7951 16.0645 56.9657 16.3681 57.0811 16.7244C57.1966 17.0807 57.2543 17.4722 57.2543 17.8988V22.7769H56.6596C56.5291 22.7769 56.4287 22.7568 56.3585 22.7166C56.2882 22.6715 56.233 22.5861 56.1929 22.4607L56.0423 21.738C55.8416 21.9237 55.6458 22.0893 55.4551 22.2348C55.2644 22.3754 55.0637 22.4958 54.8529 22.5962C54.6421 22.6915 54.4163 22.7643 54.1754 22.8145C53.9395 22.8697 53.676 22.8973 53.3849 22.8973C53.0888 22.8973 52.8103 22.8572 52.5493 22.7769C52.2884 22.6915 52.06 22.5661 51.8643 22.4005C51.6736 22.2348 51.5205 22.0266 51.4051 21.7756C51.2947 21.5197 51.2395 21.2186 51.2395 20.8723C51.2395 20.5712 51.3223 20.2826 51.4879 20.0066C51.6535 19.7255 51.922 19.4771 52.2934 19.2613C52.6648 19.0455 53.1491 18.8699 53.7463 18.7344C54.3435 18.5938 55.0762 18.5136 55.9444 18.4935V17.8988C55.9444 17.3066 55.8165 16.8599 55.5605 16.5588C55.3046 16.2527 54.9307 16.0996 54.4389 16.0996C54.1076 16.0996 53.8291 16.1423 53.6033 16.2276C53.3824 16.3079 53.1892 16.4007 53.0236 16.5061C52.863 16.6065 52.7225 16.6993 52.602 16.7846C52.4866 16.8649 52.3712 16.9051 52.2558 16.9051C52.1654 16.9051 52.0876 16.8825 52.0224 16.8373C51.9572 16.7872 51.9019 16.7269 51.8568 16.6567L51.6159 16.2276ZM60.6805 11.6882V22.7769H59.3406V11.6882H60.6805ZM67.9574 18.1321C67.9574 17.821 67.9123 17.5374 67.8219 17.2815C67.7366 17.0205 67.6087 16.7972 67.438 16.6115C67.2724 16.4208 67.0692 16.2753 66.8283 16.1749C66.5874 16.0695 66.3139 16.0168 66.0077 16.0168C65.3653 16.0168 64.8559 16.205 64.4796 16.5814C64.1082 16.9528 63.8773 17.4697 63.787 18.1321H67.9574ZM69.0415 21.7079C68.8758 21.9086 68.6776 22.0843 68.4468 22.2348C68.2159 22.3804 67.9675 22.5008 67.7015 22.5962C67.4405 22.6915 67.1695 22.7618 66.8885 22.807C66.6074 22.8572 66.3289 22.8822 66.0529 22.8822C65.5259 22.8822 65.0391 22.7944 64.5925 22.6188C64.1508 22.4381 63.7669 22.1771 63.4407 21.8359C63.1195 21.4896 62.8686 21.063 62.6879 20.5561C62.5072 20.0492 62.4169 19.4671 62.4169 18.8096C62.4169 18.2777 62.4972 17.7808 62.6578 17.3191C62.8234 16.8574 63.0593 16.4584 63.3654 16.1222C63.6716 15.7809 64.0454 15.5149 64.4871 15.3242C64.9287 15.1285 65.4256 15.0306 65.9776 15.0306C66.4343 15.0306 66.8559 15.1084 67.2423 15.264C67.6337 15.4146 67.97 15.6354 68.251 15.9265C68.5371 16.2125 68.7604 16.5688 68.921 16.9954C69.0816 17.417 69.1619 17.8988 69.1619 18.4408C69.1619 18.6516 69.1393 18.7921 69.0942 18.8623C69.049 18.9326 68.9637 18.9677 68.8382 18.9677H63.7418C63.7569 19.4495 63.8221 19.8686 63.9375 20.2249C64.058 20.5812 64.2236 20.8798 64.4344 21.1207C64.6452 21.3566 64.8961 21.5348 65.1872 21.6552C65.4783 21.7706 65.8045 21.8283 66.1658 21.8283C66.502 21.8283 66.7906 21.7907 67.0315 21.7154C67.2774 21.6351 67.4882 21.5498 67.6639 21.4595C67.8395 21.3691 67.985 21.2863 68.1005 21.2111C68.2209 21.1308 68.3238 21.0906 68.4091 21.0906C68.5195 21.0906 68.6048 21.1333 68.6651 21.2186L69.0415 21.7079ZM72.0725 16.2577C72.2381 16.072 72.4138 15.9039 72.5995 15.7533C72.7851 15.6028 72.9809 15.4748 73.1866 15.3694C73.3974 15.259 73.6182 15.1762 73.8491 15.121C74.085 15.0608 74.3384 15.0306 74.6094 15.0306C75.0259 15.0306 75.3923 15.1009 75.7085 15.2414C76.0297 15.3769 76.2957 15.5726 76.5064 15.8286C76.7222 16.0795 76.8853 16.3832 76.9958 16.7395C77.1062 17.0958 77.1614 17.4898 77.1614 17.9214V22.7769H75.8139V17.9214C75.8139 17.3442 75.6809 16.8976 75.4149 16.5814C75.1539 16.2602 74.7549 16.0996 74.218 16.0996C73.8215 16.0996 73.4501 16.195 73.1038 16.3857C72.7626 16.5764 72.4464 16.8348 72.1553 17.161V22.7769H70.8078V15.1511H71.6133C71.804 15.1511 71.9219 15.2439 71.9671 15.4296L72.0725 16.2577ZM84.1716 16.9653C83.9207 16.6291 83.6497 16.3957 83.3586 16.2652C83.0675 16.1297 82.7413 16.062 82.38 16.062C81.6724 16.062 81.1278 16.3154 80.7464 16.8223C80.365 17.3292 80.1743 18.0518 80.1743 18.9903C80.1743 19.4872 80.217 19.9137 80.3023 20.2701C80.3876 20.6214 80.5131 20.9124 80.6787 21.1433C80.8443 21.3691 81.0475 21.5348 81.2884 21.6401C81.5293 21.7455 81.8028 21.7982 82.109 21.7982C82.5506 21.7982 82.9345 21.6979 83.2607 21.4971C83.592 21.2964 83.8956 21.0128 84.1716 20.6465V16.9653ZM85.5116 11.6882V22.7769H84.7136C84.5229 22.7769 84.4025 22.684 84.3523 22.4983L84.2318 21.5724C83.9056 21.9638 83.5343 22.28 83.1177 22.5209C82.7012 22.7618 82.2194 22.8822 81.6723 22.8822C81.2357 22.8822 80.8393 22.7994 80.4829 22.6338C80.1266 22.4632 79.823 22.2148 79.5721 21.8886C79.3211 21.5624 79.1279 21.1558 78.9924 20.669C78.8569 20.1822 78.7892 19.6227 78.7892 18.9903C78.7892 18.4282 78.8644 17.9063 79.015 17.4245C79.1656 16.9377 79.3814 16.5161 79.6624 16.1598C79.9434 15.8035 80.2872 15.525 80.6937 15.3242C81.1052 15.1185 81.567 15.0156 82.0789 15.0156C82.5456 15.0156 82.9446 15.0959 83.2758 15.2565C83.612 15.4121 83.9106 15.6304 84.1716 15.9114V11.6882H85.5116ZM91.7608 19.3441C91.1435 19.3642 90.6166 19.4144 90.1799 19.4947C89.7483 19.57 89.3945 19.6703 89.1185 19.7958C88.8475 19.9213 88.6493 20.0693 88.5238 20.24C88.4034 20.4106 88.3431 20.6013 88.3431 20.8121C88.3431 21.0128 88.3758 21.186 88.441 21.3315C88.5062 21.477 88.5941 21.5975 88.7045 21.6928C88.8199 21.7832 88.9529 21.8509 89.1034 21.8961C89.259 21.9362 89.4246 21.9563 89.6003 21.9563C89.8362 21.9563 90.052 21.9337 90.2477 21.8886C90.4434 21.8384 90.6266 21.7681 90.7972 21.6778C90.9729 21.5874 91.1385 21.4795 91.2941 21.3541C91.4547 21.2286 91.6102 21.0856 91.7608 20.925V19.3441ZM87.4323 16.2276C87.8538 15.8211 88.308 15.5174 88.7948 15.3167C89.2816 15.116 89.8211 15.0156 90.4133 15.0156C90.8399 15.0156 91.2188 15.0858 91.55 15.2264C91.8812 15.3669 92.1598 15.5626 92.3856 15.8135C92.6115 16.0645 92.7821 16.3681 92.8975 16.7244C93.0129 17.0807 93.0707 17.4722 93.0707 17.8988V22.7769H92.476C92.3455 22.7769 92.2451 22.7568 92.1748 22.7166C92.1046 22.6715 92.0494 22.5861 92.0092 22.4607L91.8587 21.738C91.6579 21.9237 91.4622 22.0893 91.2715 22.2348C91.0808 22.3754 90.88 22.4958 90.6693 22.5962C90.4585 22.6915 90.2326 22.7643 89.9917 22.8145C89.7559 22.8697 89.4924 22.8973 89.2013 22.8973C88.9052 22.8973 88.6267 22.8572 88.3657 22.7769C88.1047 22.6915 87.8764 22.5661 87.6807 22.4005C87.49 22.2348 87.3369 22.0266 87.2215 21.7756C87.1111 21.5197 87.0559 21.2186 87.0559 20.8723C87.0559 20.5712 87.1387 20.2826 87.3043 20.0066C87.4699 19.7255 87.7384 19.4771 88.1098 19.2613C88.4811 19.0455 88.9654 18.8699 89.5627 18.7344C90.1599 18.5938 90.8926 18.5136 91.7608 18.4935V17.8988C91.7608 17.3066 91.6328 16.8599 91.3769 16.5588C91.1209 16.2527 90.747 16.0996 90.2552 16.0996C89.924 16.0996 89.6455 16.1423 89.4196 16.2276C89.1988 16.3079 89.0056 16.4007 88.84 16.5061C88.6794 16.6065 88.5389 16.6993 88.4184 16.7846C88.303 16.8649 88.1876 16.9051 88.0721 16.9051C87.9818 16.9051 87.904 16.8825 87.8388 16.8373C87.7735 16.7872 87.7183 16.7269 87.6731 16.6567L87.4323 16.2276ZM96.384 16.6793C96.6249 16.1573 96.921 15.7508 97.2723 15.4597C97.6236 15.1636 98.0527 15.0156 98.5596 15.0156C98.7202 15.0156 98.8732 15.0331 99.0188 15.0683C99.1693 15.1034 99.3023 15.1586 99.4177 15.2339L99.3199 16.2351C99.2898 16.3606 99.2145 16.4233 99.094 16.4233C99.0238 16.4233 98.9209 16.4082 98.7854 16.3781C98.6499 16.348 98.4968 16.333 98.3262 16.333C98.0853 16.333 97.8695 16.3681 97.6788 16.4384C97.4931 16.5086 97.325 16.614 97.1744 16.7545C97.0289 16.89 96.8959 17.0607 96.7754 17.2664C96.66 17.4672 96.5546 17.698 96.4593 17.959V22.7769H95.1118V15.1511H95.8796C96.0252 15.1511 96.1255 15.1787 96.1807 15.2339C96.2359 15.2891 96.2736 15.3845 96.2937 15.52L96.384 16.6793Z" fill="black" />
                            <path d="M13.6836 5.06982C14.0234 5.06982 14.2989 5.34529 14.2989 5.68509C14.2989 6.02489 14.5743 6.30035 14.9141 6.30035H23.5278C23.8676 6.30035 24.143 6.02489 24.143 5.68509C24.143 5.34529 24.4185 5.06982 24.7583 5.06982C25.0981 5.06982 25.3736 5.34529 25.3736 5.68509C25.3736 6.02489 25.649 6.30035 25.9888 6.30035H26.6041C27.9633 6.30035 29.0651 7.4022 29.0651 8.76139V22.2971C29.0651 23.6563 27.9633 24.7582 26.6041 24.7582H11.8378C10.4786 24.7582 9.37677 23.6563 9.37677 22.2971V8.76139C9.37677 7.4022 10.4786 6.30035 11.8378 6.30035H12.4531C12.7929 6.30035 13.0683 6.02489 13.0683 5.68509C13.0683 5.34529 13.3438 5.06982 13.6836 5.06982ZM19.221 9.99192C14.4638 9.99192 10.6073 13.8484 10.6073 18.6056V22.2971C10.6073 22.9767 11.1582 23.5277 11.8378 23.5277H26.6041C27.2837 23.5277 27.8346 22.9767 27.8346 22.2971V18.6056C27.8346 13.8484 23.9781 9.99192 19.221 9.99192Z" fill="black" />
                        </svg>