<svg width="118" height="37" viewBox="0 0 118 37" fill="none" xmlns="http://www.w3.org/2000/svg">
                    <path d="M0.50293 17.3026C0.50293 8.20616 7.87706 0.832031 16.9735 0.832031H101.319C110.415 0.832031 117.789 8.20617 117.789 17.3026V20.4836C117.789 29.58 110.415 36.9542 101.319 36.9542H16.9735C7.87706 36.9542 0.50293 29.58 0.50293 20.4836V17.3026Z" fill="#D9D9D9" />
                    <path d="M56.5858 22.7983C56.6648 22.7983 56.734 22.8304 56.7933 22.8947L57.364 23.5098C56.9292 24.0138 56.4005 24.4067 55.7779 24.6883C55.1602 24.97 54.4117 25.1108 53.5321 25.1108C52.7712 25.1108 52.0794 24.9798 51.4568 24.718C50.8342 24.4511 50.3031 24.0805 49.8633 23.6062C49.4235 23.1269 49.0826 22.5537 48.8405 21.8867C48.5984 21.2196 48.4773 20.4858 48.4773 19.6854C48.4773 18.8849 48.6033 18.1511 48.8553 17.4841C49.1073 16.817 49.4606 16.2438 49.9152 15.7645C50.3747 15.2852 50.9232 14.9147 51.5606 14.6528C52.198 14.386 52.9021 14.2525 53.673 14.2525C54.429 14.2525 55.096 14.3736 55.6741 14.6157C56.2522 14.8578 56.7612 15.1864 57.201 15.6015L56.7266 16.2611C56.697 16.3105 56.6574 16.3525 56.608 16.3871C56.5635 16.4168 56.5018 16.4316 56.4227 16.4316C56.3338 16.4316 56.2251 16.3847 56.0966 16.2908C55.9681 16.192 55.8001 16.0832 55.5926 15.9647C55.3851 15.8461 55.1257 15.7398 54.8144 15.646C54.5031 15.5471 54.1201 15.4977 53.6655 15.4977C53.1171 15.4977 52.6155 15.5941 52.161 15.7868C51.7064 15.9745 51.3135 16.2488 50.9825 16.6095C50.6564 16.9702 50.4019 17.41 50.2191 17.9288C50.0362 18.4476 49.9448 19.0331 49.9448 19.6854C49.9448 20.3475 50.0387 20.938 50.2265 21.4568C50.4192 21.9756 50.6786 22.4154 51.0047 22.7761C51.3358 23.1318 51.7237 23.4036 52.1684 23.5914C52.618 23.7791 53.1022 23.873 53.6211 23.873C53.9373 23.873 54.2214 23.8557 54.4734 23.8211C54.7304 23.7816 54.9651 23.7223 55.1775 23.6432C55.395 23.5642 55.5951 23.4654 55.7779 23.3468C55.9657 23.2232 56.151 23.0775 56.3338 22.9095C56.4178 22.8354 56.5018 22.7983 56.5858 22.7983ZM61.74 17.3655C62.2884 17.3655 62.7826 17.4569 63.2223 17.6397C63.6621 17.8225 64.0376 18.082 64.3489 18.418C64.6602 18.754 64.8974 19.1616 65.0604 19.6409C65.2284 20.1152 65.3124 20.6464 65.3124 21.2344C65.3124 21.8274 65.2284 22.361 65.0604 22.8354C64.8974 23.3097 64.6602 23.7149 64.3489 24.0509C64.0376 24.3869 63.6621 24.6463 63.2223 24.8291C62.7826 25.007 62.2884 25.096 61.74 25.096C61.1866 25.096 60.6875 25.007 60.2428 24.8291C59.803 24.6463 59.4275 24.3869 59.1162 24.0509C58.8049 23.7149 58.5653 23.3097 58.3973 22.8354C58.2342 22.361 58.1527 21.8274 58.1527 21.2344C58.1527 20.6464 58.2342 20.1152 58.3973 19.6409C58.5653 19.1616 58.8049 18.754 59.1162 18.418C59.4275 18.082 59.803 17.8225 60.2428 17.6397C60.6875 17.4569 61.1866 17.3655 61.74 17.3655ZM61.74 24.0657C62.4811 24.0657 63.0346 23.8187 63.4002 23.3245C63.7658 22.8255 63.9487 22.1312 63.9487 21.2418C63.9487 20.3475 63.7658 19.6508 63.4002 19.1517C63.0346 18.6527 62.4811 18.4031 61.74 18.4031C61.3644 18.4031 61.0358 18.4674 60.7542 18.5958C60.4775 18.7243 60.2453 18.9096 60.0575 19.1517C59.8747 19.3938 59.7363 19.6928 59.6424 20.0485C59.5535 20.3994 59.509 20.7971 59.509 21.2418C59.509 22.1312 59.6918 22.8255 60.0575 23.3245C60.4281 23.8187 60.9889 24.0657 61.74 24.0657ZM73.1598 17.4841V24.9922H72.3741C72.1863 24.9922 72.0678 24.9008 72.0183 24.718L71.9146 23.9101C71.5885 24.2708 71.2228 24.5623 70.8176 24.7847C70.4125 25.0021 69.948 25.1108 69.4242 25.1108C69.0141 25.1108 68.6509 25.0441 68.3347 24.9107C68.0234 24.7723 67.7615 24.5796 67.549 24.3325C67.3366 24.0855 67.176 23.7865 67.0673 23.4357C66.9635 23.0849 66.9116 22.697 66.9116 22.2721V17.4841H68.2309V22.2721C68.2309 22.8403 68.3594 23.2801 68.6163 23.5914C68.8782 23.9027 69.276 24.0583 69.8096 24.0583C70.2 24.0583 70.5632 23.9669 70.8992 23.7841C71.2401 23.5963 71.5539 23.3394 71.8405 23.0132V17.4841H73.1598ZM76.5042 18.9887C76.7414 18.4748 77.0329 18.0745 77.3788 17.788C77.7247 17.4964 78.1471 17.3507 78.6462 17.3507C78.8043 17.3507 78.955 17.368 79.0983 17.4025C79.2466 17.4371 79.3775 17.4915 79.4911 17.5656L79.3948 18.5514C79.3651 18.6749 79.291 18.7367 79.1724 18.7367C79.1033 18.7367 79.002 18.7218 78.8686 18.6922C78.7351 18.6625 78.5844 18.6477 78.4164 18.6477C78.1793 18.6477 77.9668 18.6823 77.779 18.7515C77.5962 18.8207 77.4307 18.9244 77.2824 19.0628C77.1391 19.1962 77.0082 19.3642 76.8896 19.5668C76.776 19.7644 76.6722 19.9917 76.5783 20.2487V24.9922H75.2516V17.4841H76.0076C76.1509 17.4841 76.2497 17.5112 76.3041 17.5656C76.3584 17.62 76.3955 17.7138 76.4153 17.8472L76.5042 18.9887ZM84.9807 18.7218C84.9214 18.8305 84.83 18.8849 84.7065 18.8849C84.6324 18.8849 84.5484 18.8577 84.4545 18.8034C84.3606 18.749 84.2445 18.6897 84.1061 18.6255C83.9727 18.5563 83.8121 18.4945 83.6244 18.4402C83.4366 18.3809 83.2142 18.3512 82.9573 18.3512C82.7349 18.3512 82.5348 18.3809 82.3569 18.4402C82.1791 18.4945 82.0259 18.5711 81.8974 18.67C81.7739 18.7688 81.6775 18.8849 81.6084 19.0183C81.5441 19.1468 81.512 19.2876 81.512 19.4408C81.512 19.6335 81.5664 19.7941 81.6751 19.9225C81.7887 20.051 81.9369 20.1622 82.1198 20.2561C82.3026 20.35 82.5101 20.434 82.7424 20.5081C82.9746 20.5772 83.2118 20.6538 83.4539 20.7378C83.7009 20.8169 83.9406 20.9058 84.1728 21.0047C84.4051 21.1035 84.6126 21.227 84.7954 21.3752C84.9782 21.5235 85.124 21.7063 85.2327 21.9237C85.3464 22.1362 85.4032 22.3931 85.4032 22.6945C85.4032 23.0404 85.3414 23.3616 85.2179 23.6581C85.0944 23.9496 84.9115 24.2041 84.6694 24.4215C84.4273 24.634 84.1308 24.802 83.78 24.9255C83.4292 25.049 83.024 25.1108 82.5645 25.1108C82.0407 25.1108 81.5664 25.0268 81.1414 24.8588C80.7165 24.6858 80.3558 24.466 80.0593 24.1991L80.3706 23.6951C80.4101 23.6309 80.4571 23.5815 80.5114 23.5469C80.5658 23.5123 80.6349 23.495 80.7189 23.495C80.8079 23.495 80.9018 23.5296 81.0006 23.5988C81.0994 23.668 81.218 23.7445 81.3564 23.8285C81.4997 23.9125 81.6726 23.9891 81.8752 24.0583C82.0778 24.1275 82.3298 24.1621 82.6312 24.1621C82.8881 24.1621 83.1129 24.13 83.3057 24.0657C83.4984 23.9965 83.6589 23.9051 83.7874 23.7915C83.9159 23.6778 84.0098 23.5469 84.0691 23.3987C84.1333 23.2504 84.1654 23.0923 84.1654 22.9243C84.1654 22.7168 84.1086 22.5463 83.9949 22.4129C83.8862 22.2745 83.7405 22.1584 83.5577 22.0645C83.3748 21.9657 83.1648 21.8817 82.9277 21.8125C82.6954 21.7384 82.4558 21.6618 82.2087 21.5828C81.9666 21.5037 81.7269 21.4148 81.4898 21.316C81.2575 21.2122 81.05 21.0837 80.8672 20.9305C80.6844 20.7774 80.5361 20.5896 80.4225 20.3672C80.3138 20.14 80.2594 19.8657 80.2594 19.5445C80.2594 19.258 80.3187 18.9837 80.4373 18.7218C80.5559 18.455 80.7288 18.2228 80.9561 18.0251C81.1834 17.8225 81.4626 17.662 81.7937 17.5434C82.1247 17.4248 82.5027 17.3655 82.9277 17.3655C83.4218 17.3655 83.864 17.4445 84.2544 17.6027C84.6497 17.7558 84.9906 17.9683 85.2772 18.2401L84.9807 18.7218ZM92.0459 20.4191C92.0459 20.1128 92.0014 19.8336 91.9124 19.5816C91.8284 19.3247 91.7024 19.1048 91.5344 18.922C91.3714 18.7342 91.1713 18.5909 90.9341 18.4921C90.6969 18.3883 90.4276 18.3364 90.1262 18.3364C89.4937 18.3364 88.9922 18.5217 88.6216 18.8923C88.256 19.258 88.0287 19.7669 87.9397 20.4191H92.0459ZM93.1132 23.9397C92.9501 24.1374 92.7549 24.3103 92.5276 24.4585C92.3003 24.6018 92.0557 24.7204 91.7939 24.8143C91.5369 24.9082 91.2701 24.9774 90.9934 25.0218C90.7167 25.0712 90.4424 25.096 90.1707 25.096C89.6519 25.096 89.1726 25.0095 88.7328 24.8365C88.298 24.6587 87.92 24.4017 87.5988 24.0657C87.2826 23.7248 87.0355 23.3048 86.8576 22.8057C86.6797 22.3067 86.5908 21.7335 86.5908 21.0862C86.5908 20.5624 86.6699 20.0732 86.828 19.6187C86.991 19.1641 87.2233 18.7712 87.5247 18.4402C87.8261 18.1042 88.1942 17.8423 88.629 17.6545C89.0639 17.4618 89.553 17.3655 90.0966 17.3655C90.5462 17.3655 90.9613 17.4421 91.3417 17.5952C91.7272 17.7435 92.0582 17.9609 92.3349 18.2475C92.6166 18.5291 92.8364 18.88 92.9946 19.3C93.1527 19.715 93.2317 20.1894 93.2317 20.723C93.2317 20.9305 93.2095 21.0689 93.165 21.1381C93.1206 21.2072 93.0366 21.2418 92.913 21.2418H87.8953C87.9101 21.7162 87.9743 22.1288 88.088 22.4796C88.2066 22.8304 88.3696 23.1244 88.5772 23.3616C88.7847 23.5938 89.0317 23.7692 89.3183 23.8878C89.6049 24.0015 89.9261 24.0583 90.2819 24.0583C90.6129 24.0583 90.897 24.0212 91.1342 23.9471C91.3763 23.8681 91.5839 23.7841 91.7568 23.6951C91.9297 23.6062 92.073 23.5247 92.1867 23.4505C92.3053 23.3715 92.4066 23.332 92.4906 23.332C92.5993 23.332 92.6833 23.374 92.7426 23.458L93.1132 23.9397Z" fill="black" />
                    <path fill-rule="evenodd" clip-rule="evenodd" d="M22.6433 9.57227H28.6433V16.5723C28.6433 16.7524 28.5464 16.9186 28.3896 17.0074C28.2329 17.0961 28.0405 17.0937 27.886 17.001L25.6433 15.6554L23.4005 17.001C23.2461 17.0937 23.0537 17.0961 22.8969 17.0074C22.7402 16.9186 22.6433 16.7524 22.6433 16.5723V9.57227Z" fill="black" />
                    <path d="M19.8714 8.57227H30.6316C31.8201 8.57227 32.7836 9.72744 32.7836 11.1524V26.6333C32.7836 28.0583 31.8201 29.2135 30.6316 29.2135H19.8714C18.6828 29.2135 17.7193 28.0583 17.7193 26.6333V25.3433H18.7953V26.6333C18.7953 27.3458 19.2771 27.9234 19.8714 27.9234H30.6316C31.2259 27.9234 31.7076 27.3458 31.7076 26.6333V11.1524C31.7076 10.4399 31.2259 9.86234 30.6316 9.86234H19.8714C19.2771 9.86234 18.7953 10.4399 18.7953 11.1524V12.4425H17.7193V11.1524C17.7193 9.72744 18.6828 8.57227 19.8714 8.57227Z" fill="black" />
                    <path d="M17.7193 15.0226V14.3776C17.7193 14.0214 17.9602 13.7326 18.2573 13.7326C18.5545 13.7326 18.7953 14.0214 18.7953 14.3776V15.0226H19.3333C19.6305 15.0226 19.8714 15.3114 19.8714 15.6677C19.8714 16.0239 19.6305 16.3127 19.3333 16.3127H17.1813C16.8842 16.3127 16.6433 16.0239 16.6433 15.6677C16.6433 15.3114 16.8842 15.0226 17.1813 15.0226H17.7193Z" fill="black" />
                    <path d="M17.7193 18.8929V18.2478C17.7193 17.8916 17.9602 17.6028 18.2573 17.6028C18.5545 17.6028 18.7953 17.8916 18.7953 18.2478V18.8929H19.3333C19.6305 18.8929 19.8714 19.1817 19.8714 19.5379C19.8714 19.8942 19.6305 20.183 19.3333 20.183H17.1813C16.8842 20.183 16.6433 19.8942 16.6433 19.5379C16.6433 19.1817 16.8842 18.8929 17.1813 18.8929H17.7193Z" fill="black" />
                    <path d="M17.7193 22.7631V22.1181C17.7193 21.7618 17.9602 21.473 18.2573 21.473C18.5545 21.473 18.7953 21.7618 18.7953 22.1181V22.7631H19.3333C19.6305 22.7631 19.8714 23.0519 19.8714 23.4081C19.8714 23.7644 19.6305 24.0532 19.3333 24.0532H17.1813C16.8842 24.0532 16.6433 23.7644 16.6433 23.4081C16.6433 23.0519 16.8842 22.7631 17.1813 22.7631H17.7193Z" fill="black" />
                </svg>