<svg width="128" height="34" viewBox="0 0 128 34" fill="none" xmlns="http://www.w3.org/2000/svg">
                            <path d="M0 16.9908C0 8.03609 7.25924 0.776855 16.214 0.776855H111.181C120.136 0.776855 127.395 8.03609 127.395 16.9908C127.395 25.9455 120.136 33.2048 111.181 33.2048H16.214C7.25925 33.2048 0 25.9455 0 16.9908Z" fill="#D9D9D9" />
                            <path d="M47.7384 12.9222C47.6932 12.9975 47.643 13.0552 47.5878 13.0953C47.5376 13.1305 47.4749 13.148 47.3996 13.148C47.3143 13.148 47.2139 13.1054 47.0985 13.0201C46.9831 12.9347 46.8375 12.8419 46.6619 12.7415C46.4913 12.6361 46.283 12.5408 46.0371 12.4555C45.7962 12.3702 45.5026 12.3275 45.1563 12.3275C44.8301 12.3275 44.5415 12.3727 44.2906 12.463C44.0447 12.5483 43.8364 12.6662 43.6658 12.8168C43.5002 12.9674 43.3747 13.1455 43.2894 13.3513C43.2041 13.552 43.1614 13.7703 43.1614 14.0062C43.1614 14.3073 43.2342 14.5583 43.3797 14.759C43.5303 14.9547 43.726 15.1229 43.9669 15.2634C44.2128 15.4039 44.4888 15.5269 44.795 15.6322C45.1061 15.7326 45.4223 15.838 45.7435 15.9484C46.0697 16.0588 46.3859 16.1843 46.692 16.3248C47.0032 16.4603 47.2792 16.6335 47.5201 16.8442C47.766 17.055 47.9617 17.3135 48.1073 17.6196C48.2578 17.9257 48.3331 18.3021 48.3331 18.7488C48.3331 19.2205 48.2528 19.6647 48.0922 20.0812C47.9316 20.4928 47.6957 20.8516 47.3846 21.1577C47.0784 21.4639 46.6995 21.7048 46.2479 21.8804C45.8012 22.0561 45.2918 22.1439 44.7197 22.1439C44.0171 22.1439 43.3797 22.0184 42.8076 21.7675C42.2355 21.5115 41.7462 21.1678 41.3397 20.7362L41.7612 20.0436C41.8014 19.9884 41.8491 19.9432 41.9043 19.9081C41.9645 19.8679 42.0297 19.8479 42.1 19.8479C42.1652 19.8479 42.238 19.8755 42.3183 19.9307C42.4036 19.9809 42.499 20.0461 42.6044 20.1264C42.7097 20.2067 42.8302 20.2945 42.9657 20.3899C43.1012 20.4852 43.2543 20.5731 43.4249 20.6534C43.6005 20.7337 43.7988 20.8014 44.0196 20.8566C44.2404 20.9068 44.4888 20.9319 44.7649 20.9319C45.1111 20.9319 45.4198 20.8842 45.6908 20.7889C45.9618 20.6935 46.1901 20.5605 46.3758 20.3899C46.5665 20.2142 46.7121 20.006 46.8125 19.7651C46.9128 19.5242 46.963 19.2557 46.963 18.9596C46.963 18.6334 46.8877 18.3674 46.7372 18.1616C46.5916 17.9508 46.3984 17.7752 46.1575 17.6347C45.9166 17.4941 45.6406 17.3762 45.3295 17.2809C45.0183 17.1805 44.7021 17.0801 44.3809 16.9797C44.0597 16.8743 43.7436 16.7539 43.4324 16.6184C43.1213 16.4829 42.8452 16.3072 42.6044 16.0914C42.3635 15.8756 42.1677 15.6072 42.0172 15.286C41.8716 14.9598 41.7989 14.5583 41.7989 14.0815C41.7989 13.7001 41.8716 13.3312 42.0172 12.9749C42.1677 12.6186 42.3835 12.3024 42.6646 12.0264C42.9506 11.7504 43.2994 11.5295 43.711 11.3639C44.1275 11.1983 44.6043 11.1155 45.1413 11.1155C45.7435 11.1155 46.2905 11.2109 46.7823 11.4016C47.2792 11.5923 47.7158 11.8683 48.0922 12.2296L47.7384 12.9222ZM55.3422 15.7527C55.302 15.8079 55.2619 15.8506 55.2217 15.8807C55.1816 15.9108 55.1264 15.9258 55.0561 15.9258C54.9808 15.9258 54.898 15.8957 54.8077 15.8355C54.7173 15.7703 54.6044 15.7 54.4689 15.6247C54.3384 15.5494 54.1753 15.4817 53.9796 15.4215C53.7889 15.3562 53.553 15.3236 53.272 15.3236C52.8956 15.3236 52.5644 15.3914 52.2783 15.5269C51.9922 15.6573 51.7513 15.848 51.5556 16.099C51.3649 16.3499 51.2194 16.6535 51.119 17.0099C51.0236 17.3662 50.976 17.7652 50.976 18.2068C50.976 18.6685 51.0287 19.08 51.1341 19.4414C51.2394 19.7977 51.3875 20.0988 51.5782 20.3447C51.7739 20.5856 52.0073 20.7713 52.2783 20.9018C52.5543 21.0272 52.863 21.09 53.2042 21.09C53.5304 21.09 53.7989 21.0523 54.0097 20.9771C54.2205 20.8968 54.3936 20.8089 54.5291 20.7136C54.6697 20.6182 54.7851 20.5329 54.8754 20.4576C54.9708 20.3773 55.0636 20.3372 55.154 20.3372C55.2644 20.3372 55.3497 20.3798 55.4099 20.4652L55.7863 20.9545C55.6207 21.1602 55.4325 21.3359 55.2217 21.4814C55.0109 21.627 54.7826 21.7499 54.5367 21.8503C54.2958 21.9456 54.0423 22.0159 53.7764 22.0611C53.5104 22.1062 53.2394 22.1288 52.9633 22.1288C52.4866 22.1288 52.0424 22.041 51.6309 21.8654C51.2244 21.6897 50.8706 21.4363 50.5695 21.105C50.2683 20.7688 50.0325 20.3573 49.8618 19.8705C49.6912 19.3837 49.6059 18.8291 49.6059 18.2068C49.6059 17.6397 49.6837 17.1152 49.8393 16.6335C49.9999 16.1517 50.2307 15.7376 50.5318 15.3914C50.838 15.04 51.2118 14.7665 51.6535 14.5708C52.1001 14.3751 52.612 14.2772 53.1892 14.2772C53.7262 14.2772 54.1979 14.365 54.6044 14.5407C55.0159 14.7113 55.3798 14.9547 55.696 15.2709L55.3422 15.7527ZM58.5722 15.4139C58.8984 15.0677 59.2598 14.7916 59.6562 14.5859C60.0527 14.3801 60.5094 14.2772 61.0263 14.2772C61.4429 14.2772 61.8092 14.3475 62.1254 14.488C62.4466 14.6235 62.7126 14.8192 62.9233 15.0752C63.1391 15.3261 63.3023 15.6297 63.4127 15.9861C63.5231 16.3424 63.5783 16.7363 63.5783 17.1679V22.0234H62.2308V17.1679C62.2308 16.5908 62.0978 16.1441 61.8318 15.828C61.5708 15.5068 61.1719 15.3462 60.6349 15.3462C60.2384 15.3462 59.867 15.4415 59.5207 15.6322C59.1795 15.823 58.8633 16.0814 58.5722 16.4076V22.0234H57.2247V10.9348H58.5722V15.4139ZM70.724 17.3787C70.724 17.0676 70.6789 16.784 70.5885 16.5281C70.5032 16.2671 70.3752 16.0438 70.2046 15.8581C70.039 15.6674 69.8357 15.5218 69.5948 15.4215C69.3539 15.3161 69.0804 15.2634 68.7743 15.2634C68.1319 15.2634 67.6225 15.4516 67.2461 15.828C66.8748 16.1993 66.6439 16.7163 66.5536 17.3787H70.724ZM71.808 20.9545C71.6424 21.1552 71.4442 21.3309 71.2133 21.4814C70.9825 21.627 70.7341 21.7474 70.4681 21.8428C70.2071 21.9381 69.9361 22.0084 69.6551 22.0535C69.374 22.1037 69.0955 22.1288 68.8195 22.1288C68.2925 22.1288 67.8057 22.041 67.3591 21.8654C66.9174 21.6847 66.5335 21.4237 66.2073 21.0824C65.8861 20.7362 65.6352 20.3096 65.4545 19.8027C65.2738 19.2958 65.1835 18.7137 65.1835 18.0562C65.1835 17.5243 65.2638 17.0274 65.4244 16.5657C65.59 16.104 65.8259 15.705 66.132 15.3688C66.4381 15.0275 66.812 14.7615 67.2537 14.5708C67.6953 14.3751 68.1921 14.2772 68.7442 14.2772C69.2009 14.2772 69.6224 14.355 70.0089 14.5106C70.4003 14.6611 70.7366 14.882 71.0176 15.173C71.3037 15.4591 71.527 15.8154 71.6876 16.242C71.8482 16.6636 71.9285 17.1454 71.9285 17.6874C71.9285 17.8981 71.9059 18.0387 71.8607 18.1089C71.8156 18.1792 71.7303 18.2143 71.6048 18.2143H66.5084C66.5235 18.6961 66.5887 19.1152 66.7041 19.4715C66.8246 19.8278 66.9902 20.1264 67.201 20.3673C67.4117 20.6032 67.6627 20.7813 67.9538 20.9018C68.2448 21.0172 68.571 21.0749 68.9324 21.0749C69.2686 21.0749 69.5572 21.0373 69.7981 20.962C70.044 20.8817 70.2548 20.7964 70.4304 20.7061C70.6061 20.6157 70.7516 20.5329 70.8671 20.4576C70.9875 20.3773 71.0904 20.3372 71.1757 20.3372C71.2861 20.3372 71.3714 20.3798 71.4316 20.4652L71.808 20.9545ZM78.5428 16.2119C78.2919 15.8756 78.0209 15.6423 77.7298 15.5118C77.4387 15.3763 77.1125 15.3085 76.7512 15.3085C76.0436 15.3085 75.499 15.562 75.1176 16.0689C74.7362 16.5757 74.5455 17.2984 74.5455 18.2369C74.5455 18.7337 74.5882 19.1603 74.6735 19.5166C74.7588 19.8679 74.8843 20.159 75.0499 20.3899C75.2155 20.6157 75.4187 20.7813 75.6596 20.8867C75.9005 20.9921 76.174 21.0448 76.4802 21.0448C76.9218 21.0448 77.3057 20.9444 77.6319 20.7437C77.9632 20.5429 78.2668 20.2594 78.5428 19.893V16.2119ZM79.8828 10.9348V22.0234H79.0848C78.8941 22.0234 78.7737 21.9306 78.7235 21.7449L78.603 20.819C78.2768 21.2104 77.9055 21.5266 77.4889 21.7675C77.0724 22.0084 76.5906 22.1288 76.0436 22.1288C75.6069 22.1288 75.2105 22.046 74.8541 21.8804C74.4978 21.7098 74.1942 21.4614 73.9433 21.1351C73.6923 20.8089 73.4991 20.4024 73.3636 19.9156C73.2281 19.4288 73.1604 18.8692 73.1604 18.2369C73.1604 17.6748 73.2356 17.1529 73.3862 16.6711C73.5368 16.1843 73.7526 15.7627 74.0336 15.4064C74.3146 15.0501 74.6584 14.7716 75.0649 14.5708C75.4764 14.365 75.9382 14.2622 76.4501 14.2622C76.9168 14.2622 77.3158 14.3425 77.647 14.5031C77.9832 14.6586 78.2818 14.8769 78.5428 15.158V10.9348H79.8828ZM88.2699 14.3977V22.0234H87.472C87.2813 22.0234 87.1608 21.9306 87.1106 21.7449L87.0052 20.9244C86.674 21.2907 86.3026 21.5868 85.8911 21.8127C85.4796 22.0335 85.0078 22.1439 84.4759 22.1439C84.0593 22.1439 83.6905 22.0761 83.3693 21.9406C83.0531 21.8001 82.7871 21.6044 82.5713 21.3535C82.3555 21.1025 82.1924 20.7989 82.082 20.4426C81.9766 20.0863 81.9239 19.6923 81.9239 19.2607V14.3977H83.2639V19.2607C83.2639 19.8378 83.3944 20.2845 83.6553 20.6007C83.9213 20.9168 84.3253 21.0749 84.8673 21.0749C85.2638 21.0749 85.6327 20.9821 85.9739 20.7964C86.3202 20.6057 86.6389 20.3447 86.93 20.0135V14.3977H88.2699ZM91.7797 10.9348V22.0234H90.4397V10.9348H91.7797ZM99.0566 17.3787C99.0566 17.0676 99.0114 16.784 98.9211 16.5281C98.8358 16.2671 98.7078 16.0438 98.5372 15.8581C98.3716 15.6674 98.1683 15.5218 97.9274 15.4215C97.6865 15.3161 97.413 15.2634 97.1069 15.2634C96.4645 15.2634 95.9551 15.4516 95.5787 15.828C95.2073 16.1993 94.9765 16.7163 94.8861 17.3787H99.0566ZM100.141 20.9545C99.975 21.1552 99.7768 21.3309 99.5459 21.4814C99.3151 21.627 99.0666 21.7474 98.8006 21.8428C98.5397 21.9381 98.2687 22.0084 97.9876 22.0535C97.7066 22.1037 97.4281 22.1288 97.152 22.1288C96.6251 22.1288 96.1383 22.041 95.6916 21.8654C95.25 21.6847 94.8661 21.4237 94.5399 21.0824C94.2187 20.7362 93.9677 20.3096 93.7871 19.8027C93.6064 19.2958 93.5161 18.7137 93.5161 18.0562C93.5161 17.5243 93.5964 17.0274 93.7569 16.5657C93.9226 16.104 94.1584 15.705 94.4646 15.3688C94.7707 15.0275 95.1446 14.7615 95.5862 14.5708C96.0279 14.3751 96.5247 14.2772 97.0768 14.2772C97.5334 14.2772 97.955 14.355 98.3414 14.5106C98.7329 14.6611 99.0691 14.882 99.3502 15.173C99.6362 15.4591 99.8596 15.8154 100.02 16.242C100.181 16.6636 100.261 17.1454 100.261 17.6874C100.261 17.8981 100.238 18.0387 100.193 18.1089C100.148 18.1792 100.063 18.2143 99.9374 18.2143H94.841C94.856 18.6961 94.9213 19.1152 95.0367 19.4715C95.1571 19.8278 95.3228 20.1264 95.5335 20.3673C95.7443 20.6032 95.9952 20.7813 96.2863 20.9018C96.5774 21.0172 96.9036 21.0749 97.265 21.0749C97.6012 21.0749 97.8898 21.0373 98.1307 20.962C98.3766 20.8817 98.5874 20.7964 98.763 20.7061C98.9387 20.6157 99.0842 20.5329 99.1996 20.4576C99.3201 20.3773 99.423 20.3372 99.5083 20.3372C99.6187 20.3372 99.704 20.3798 99.7642 20.4652L100.141 20.9545Z" fill="black" />
                            <path d="M13.6465 6.56738C13.9922 6.56738 14.2724 6.84761 14.2724 7.19329C14.2724 7.53897 14.5526 7.8192 14.8983 7.8192H23.661C24.0067 7.8192 24.2869 7.53897 24.2869 7.19329C24.2869 6.84761 24.5671 6.56738 24.9128 6.56738C25.2585 6.56738 25.5387 6.84761 25.5387 7.19329C25.5387 7.53897 25.8189 7.8192 26.1646 7.8192H26.7905C28.1732 7.8192 29.2941 8.94011 29.2941 10.3228V24.0928C29.2941 25.4755 28.1732 26.5964 26.7905 26.5964H11.7688C10.386 26.5964 9.26514 25.4755 9.26514 24.0928V10.3228C9.26514 8.94011 10.386 7.8192 11.7688 7.8192H12.3947C12.7403 7.8192 13.0206 7.53897 13.0206 7.19329C13.0206 6.84761 13.3008 6.56738 13.6465 6.56738ZM11.7688 9.07101C11.0774 9.07101 10.5169 9.63146 10.5169 10.3228V24.0928C10.5169 24.7841 11.0774 25.3446 11.7688 25.3446H19.2796H26.7905C27.4819 25.3446 28.0423 24.7841 28.0423 24.0928V10.3228C28.0423 9.63146 27.4819 9.07101 26.7905 9.07101H11.7688Z" fill="black" />
                            <path d="M12.3947 11.5746C12.3947 11.229 12.6749 10.9487 13.0206 10.9487H25.5387C25.8844 10.9487 26.1646 11.229 26.1646 11.5746V12.8264C26.1646 13.1721 25.8844 13.4524 25.5387 13.4524H13.0206C12.6749 13.4524 12.3947 13.1721 12.3947 12.8264V11.5746Z" fill="black" />
                            <path d="M23.0351 15.956C23.0351 15.6103 23.3153 15.3301 23.661 15.3301H24.9128C25.2585 15.3301 25.5387 15.6103 25.5387 15.956V17.2078C25.5387 17.5535 25.2585 17.8337 24.9128 17.8337H23.661C23.3153 17.8337 23.0351 17.5535 23.0351 17.2078V15.956Z" fill="black" />
                            <path d="M19.2796 15.956C19.2796 15.6103 19.5599 15.3301 19.9055 15.3301H21.1574C21.503 15.3301 21.7833 15.6103 21.7833 15.956V17.2078C21.7833 17.5535 21.503 17.8337 21.1574 17.8337H19.9055C19.5599 17.8337 19.2796 17.5535 19.2796 17.2078V15.956Z" fill="black" />
                            <path d="M13.0206 19.7114C13.0206 19.3657 13.3008 19.0855 13.6465 19.0855H14.8983C15.244 19.0855 15.5242 19.3657 15.5242 19.7114V20.9632C15.5242 21.3089 15.244 21.5891 14.8983 21.5891H13.6465C13.3008 21.5891 13.0206 21.3089 13.0206 20.9632V19.7114Z" fill="black" />
                            <path d="M16.776 19.7114C16.776 19.3657 17.0562 19.0855 17.4019 19.0855H18.6537C18.9994 19.0855 19.2796 19.3657 19.2796 19.7114V20.9632C19.2796 21.3089 18.9994 21.5891 18.6537 21.5891H17.4019C17.0562 21.5891 16.776 21.3089 16.776 20.9632V19.7114Z" fill="black" />
                        </svg>