<svg width="118" height="37" viewBox="0 0 118 37" fill="none" xmlns="http://www.w3.org/2000/svg">
                    <path d="M0.046814 17.3026C0.046814 8.20616 7.42095 0.832031 16.5174 0.832031H100.863C109.959 0.832031 117.333 8.20617 117.333 17.3026V20.4836C117.333 29.58 109.959 36.9542 100.863 36.9542H16.5174C7.42094 36.9542 0.046814 29.58 0.046814 20.4836V17.3026Z" fill="#D9D9D9" />
                    <path d="M52.7598 16.0314C52.7154 16.1055 52.666 16.1623 52.6116 16.2018C52.5622 16.2364 52.5004 16.2537 52.4263 16.2537C52.3423 16.2537 52.2435 16.2117 52.1298 16.1277C52.0162 16.0437 51.8729 15.9523 51.7 15.8535C51.532 15.7497 51.3269 15.6558 51.0848 15.5718C50.8476 15.4878 50.5586 15.4458 50.2176 15.4458C49.8964 15.4458 49.6123 15.4903 49.3653 15.5792C49.1231 15.6632 48.9181 15.7794 48.7501 15.9276C48.587 16.0758 48.4635 16.2512 48.3795 16.4538C48.2955 16.6515 48.2535 16.8664 48.2535 17.0987C48.2535 17.3951 48.3251 17.6422 48.4684 17.8398C48.6167 18.0325 48.8094 18.1981 49.0466 18.3364C49.2887 18.4748 49.5604 18.5958 49.8618 18.6996C50.1682 18.7984 50.4795 18.9022 50.7957 19.0109C51.1169 19.1196 51.4282 19.2431 51.7296 19.3815C52.036 19.5149 52.3077 19.6854 52.5449 19.8929C52.787 20.1004 52.9797 20.3549 53.123 20.6563C53.2713 20.9577 53.3454 21.3283 53.3454 21.7681C53.3454 22.2325 53.2663 22.6698 53.1082 23.08C52.9501 23.4851 52.7178 23.8384 52.4115 24.1398C52.1101 24.4412 51.737 24.6784 51.2923 24.8514C50.8526 25.0243 50.351 25.1108 49.7877 25.1108C49.096 25.1108 48.4684 24.9872 47.9051 24.7402C47.3418 24.4882 46.8601 24.1497 46.4598 23.7248L46.8749 23.0429C46.9144 22.9885 46.9614 22.9441 47.0157 22.9095C47.075 22.87 47.1393 22.8502 47.2084 22.8502C47.2727 22.8502 47.3443 22.8774 47.4234 22.9317C47.5074 22.9811 47.6013 23.0454 47.705 23.1244C47.8088 23.2035 47.9274 23.29 48.0608 23.3838C48.1942 23.4777 48.3449 23.5642 48.5129 23.6432C48.6858 23.7223 48.881 23.789 49.0984 23.8434C49.3158 23.8928 49.5604 23.9175 49.8322 23.9175C50.1731 23.9175 50.477 23.8705 50.7438 23.7767C51.0107 23.6828 51.2355 23.5518 51.4183 23.3838C51.6061 23.2109 51.7494 23.0058 51.8482 22.7687C51.947 22.5315 51.9964 22.2671 51.9964 21.9756C51.9964 21.6544 51.9223 21.3925 51.7741 21.19C51.6308 20.9824 51.4406 20.8095 51.2034 20.6711C50.9662 20.5328 50.6944 20.4167 50.3881 20.3228C50.0817 20.224 49.7704 20.1251 49.4542 20.0263C49.138 19.9225 48.8267 19.804 48.5203 19.6705C48.214 19.5371 47.9422 19.3642 47.705 19.1517C47.4678 18.9392 47.2751 18.6749 47.1269 18.3587C46.9836 18.0375 46.912 17.6422 46.912 17.1728C46.912 16.7972 46.9836 16.4341 47.1269 16.0832C47.2751 15.7324 47.4876 15.4211 47.7643 15.1494C48.046 14.8776 48.3894 14.6602 48.7946 14.4971C49.2047 14.3341 49.6741 14.2525 50.2028 14.2525C50.7957 14.2525 51.3343 14.3464 51.8186 14.5342C52.3077 14.722 52.7376 14.9937 53.1082 15.3495L52.7598 16.0314ZM60.0462 20.4191C60.0462 20.1128 60.0017 19.8336 59.9128 19.5816C59.8288 19.3247 59.7028 19.1048 59.5348 18.922C59.3717 18.7342 59.1716 18.5909 58.9344 18.4921C58.6973 18.3883 58.428 18.3364 58.1265 18.3364C57.4941 18.3364 56.9925 18.5217 56.622 18.8923C56.2563 19.258 56.029 19.7669 55.9401 20.4191H60.0462ZM61.1135 23.9397C60.9504 24.1374 60.7553 24.3103 60.528 24.4585C60.3007 24.6018 60.0561 24.7204 59.7942 24.8143C59.5373 24.9082 59.2704 24.9774 58.9937 25.0218C58.717 25.0712 58.4428 25.096 58.171 25.096C57.6522 25.096 57.1729 25.0095 56.7331 24.8365C56.2983 24.6587 55.9203 24.4017 55.5991 24.0657C55.2829 23.7248 55.0358 23.3048 54.858 22.8057C54.6801 22.3067 54.5911 21.7335 54.5911 21.0862C54.5911 20.5624 54.6702 20.0732 54.8283 19.6187C54.9914 19.1641 55.2236 18.7712 55.525 18.4402C55.8264 18.1042 56.1945 17.8423 56.6294 17.6545C57.0642 17.4618 57.5534 17.3655 58.0969 17.3655C58.5465 17.3655 58.9616 17.4421 59.3421 17.5952C59.7275 17.7435 60.0585 17.9609 60.3353 18.2475C60.6169 18.5291 60.8368 18.88 60.9949 19.3C61.153 19.715 61.2321 20.1894 61.2321 20.723C61.2321 20.9305 61.2098 21.0689 61.1654 21.1381C61.1209 21.2072 61.0369 21.2418 60.9134 21.2418H55.8956C55.9104 21.7162 55.9747 22.1288 56.0883 22.4796C56.2069 22.8304 56.37 23.1244 56.5775 23.3616C56.785 23.5938 57.0321 23.7692 57.3187 23.8878C57.6053 24.0015 57.9264 24.0583 58.2822 24.0583C58.6133 24.0583 58.8974 24.0212 59.1345 23.9471C59.3767 23.8681 59.5842 23.7841 59.7571 23.6951C59.9301 23.6062 60.0734 23.5247 60.187 23.4505C60.3056 23.3715 60.4069 23.332 60.4909 23.332C60.5996 23.332 60.6836 23.374 60.7429 23.458L61.1135 23.9397ZM68.0779 18.8182C68.0384 18.8725 67.9988 18.9145 67.9593 18.9442C67.9198 18.9738 67.8654 18.9887 67.7962 18.9887C67.7221 18.9887 67.6406 18.959 67.5516 18.8997C67.4627 18.8355 67.3515 18.7663 67.2181 18.6922C67.0896 18.6181 66.9291 18.5514 66.7364 18.4921C66.5486 18.4278 66.3164 18.3957 66.0396 18.3957C65.6691 18.3957 65.3429 18.4624 65.0613 18.5958C64.7796 18.7243 64.5425 18.9121 64.3498 19.1591C64.162 19.4062 64.0187 19.7051 63.9199 20.056C63.826 20.4068 63.7791 20.7996 63.7791 21.2344C63.7791 21.689 63.8309 22.0942 63.9347 22.45C64.0385 22.8008 64.1842 23.0972 64.372 23.3394C64.5647 23.5765 64.7945 23.7594 65.0613 23.8878C65.3331 24.0114 65.6369 24.0731 65.9729 24.0731C66.2941 24.0731 66.5585 24.0361 66.766 23.962C66.9735 23.8829 67.144 23.7964 67.2774 23.7025C67.4158 23.6087 67.5294 23.5247 67.6184 23.4505C67.7122 23.3715 67.8036 23.332 67.8926 23.332C68.0013 23.332 68.0853 23.374 68.1446 23.458L68.5152 23.9397C68.3521 24.1423 68.1668 24.3152 67.9593 24.4585C67.7518 24.6018 67.5269 24.7229 67.2848 24.8217C67.0476 24.9156 66.7981 24.9848 66.5362 25.0292C66.2744 25.0737 66.0075 25.096 65.7358 25.096C65.2664 25.096 64.8291 25.0095 64.4239 24.8365C64.0236 24.6636 63.6753 24.4141 63.3788 24.088C63.0824 23.7569 62.8501 23.3517 62.6821 22.8724C62.5141 22.3931 62.4301 21.8471 62.4301 21.2344C62.4301 20.6761 62.5067 20.1597 62.6599 19.6854C62.818 19.211 63.0453 18.8034 63.3418 18.4624C63.6432 18.1165 64.0113 17.8472 64.4461 17.6545C64.8859 17.4618 65.3899 17.3655 65.9581 17.3655C66.4868 17.3655 66.9513 17.452 67.3515 17.6249C67.7567 17.7929 68.1149 18.0325 68.4262 18.3438L68.0779 18.8182ZM76.8985 24.9922H75.5792V18.5884H71.7102V23.0948C71.7102 23.411 71.7868 23.6457 71.94 23.7989C72.0932 23.9521 72.2908 24.0287 72.5329 24.0287C72.6713 24.0287 72.7899 24.0114 72.8887 23.9768C72.9925 23.9372 73.0814 23.8952 73.1555 23.8508C73.2296 23.8063 73.2914 23.7668 73.3408 23.7322C73.3952 23.6927 73.4421 23.6729 73.4816 23.6729C73.5508 23.6729 73.6126 23.7149 73.6669 23.7989L74.0523 24.4289C73.8251 24.6414 73.5508 24.8094 73.2296 24.9329C72.9085 25.0515 72.5774 25.1108 72.2365 25.1108C71.6435 25.1108 71.1865 24.9452 70.8653 24.6142C70.5491 24.2831 70.3909 23.8063 70.3909 23.1837V18.5884H69.4867C69.4076 18.5884 69.3409 18.5662 69.2866 18.5217C69.2322 18.4723 69.2051 18.3982 69.2051 18.2994V17.7731L70.4354 17.6101L70.7393 15.2976C70.7541 15.2235 70.7862 15.1642 70.8356 15.1197C70.89 15.0703 70.9592 15.0456 71.0432 15.0456H71.7102V17.6323H76.8985V24.9922ZM77.2246 15.0752C77.2246 15.2037 77.1974 15.3248 77.1431 15.4384C77.0936 15.5471 77.0245 15.6435 76.9355 15.7275C76.8515 15.8115 76.7527 15.8782 76.6391 15.9276C76.5254 15.977 76.4043 16.0017 76.2759 16.0017C76.1474 16.0017 76.0263 15.977 75.9127 15.9276C75.804 15.8782 75.7076 15.8115 75.6236 15.7275C75.5396 15.6435 75.4729 15.5471 75.4235 15.4384C75.3741 15.3248 75.3494 15.2037 75.3494 15.0752C75.3494 14.9468 75.3741 14.8257 75.4235 14.7121C75.4729 14.5935 75.5396 14.4922 75.6236 14.4082C75.7076 14.3192 75.804 14.2501 75.9127 14.2007C76.0263 14.1512 76.1474 14.1265 76.2759 14.1265C76.4043 14.1265 76.5254 14.1512 76.6391 14.2007C76.7527 14.2501 76.8515 14.3192 76.9355 14.4082C77.0245 14.4922 77.0936 14.5935 77.1431 14.7121C77.1974 14.8257 77.2246 14.9468 77.2246 15.0752ZM82.2306 17.3655C82.7791 17.3655 83.2732 17.4569 83.713 17.6397C84.1528 17.8225 84.5283 18.082 84.8396 18.418C85.1509 18.754 85.3881 19.1616 85.5511 19.6409C85.7191 20.1152 85.8031 20.6464 85.8031 21.2344C85.8031 21.8274 85.7191 22.361 85.5511 22.8354C85.3881 23.3097 85.1509 23.7149 84.8396 24.0509C84.5283 24.3869 84.1528 24.6463 83.713 24.8291C83.2732 25.007 82.7791 25.096 82.2306 25.096C81.6772 25.096 81.1782 25.007 80.7335 24.8291C80.2937 24.6463 79.9182 24.3869 79.6069 24.0509C79.2956 23.7149 79.0559 23.3097 78.8879 22.8354C78.7249 22.361 78.6434 21.8274 78.6434 21.2344C78.6434 20.6464 78.7249 20.1152 78.8879 19.6409C79.0559 19.1616 79.2956 18.754 79.6069 18.418C79.9182 18.082 80.2937 17.8225 80.7335 17.6397C81.1782 17.4569 81.6772 17.3655 82.2306 17.3655ZM82.2306 24.0657C82.9718 24.0657 83.5252 23.8187 83.8909 23.3245C84.2565 22.8255 84.4394 22.1312 84.4394 21.2418C84.4394 20.3475 84.2565 19.6508 83.8909 19.1517C83.5252 18.6527 82.9718 18.4031 82.2306 18.4031C81.8551 18.4031 81.5265 18.4674 81.2449 18.5958C80.9682 18.7243 80.7359 18.9096 80.5482 19.1517C80.3654 19.3938 80.227 19.6928 80.1331 20.0485C80.0442 20.3994 79.9997 20.7971 79.9997 21.2418C79.9997 22.1312 80.1825 22.8255 80.5482 23.3245C80.9188 23.8187 81.4796 24.0657 82.2306 24.0657ZM88.7216 18.5736C88.8847 18.3908 89.0576 18.2252 89.2404 18.077C89.4233 17.9288 89.616 17.8028 89.8186 17.699C90.0261 17.5903 90.2435 17.5088 90.4708 17.4544C90.703 17.3951 90.9526 17.3655 91.2194 17.3655C91.6295 17.3655 91.9902 17.4347 92.3015 17.573C92.6177 17.7064 92.8796 17.8991 93.0871 18.1511C93.2996 18.3982 93.4602 18.6971 93.5689 19.048C93.6776 19.3988 93.732 19.7867 93.732 20.2116V24.9922H92.4053V20.2116C92.4053 19.6434 92.2743 19.2036 92.0124 18.8923C91.7555 18.5761 91.3627 18.418 90.834 18.418C90.4436 18.418 90.078 18.5118 89.737 18.6996C89.401 18.8874 89.0897 19.1418 88.8031 19.463V24.9922H87.4764V17.4841H88.2695C88.4573 17.4841 88.5734 17.5755 88.6179 17.7583L88.7216 18.5736Z" fill="black" />
                    <path d="M15.1111 13.7325C15.1111 12.3075 16.0746 11.1523 17.2631 11.1523H30.1754C31.364 11.1523 32.3275 12.3075 32.3275 13.7325V24.0531C32.3275 25.4781 31.364 26.6333 30.1754 26.6333H17.2631C16.0746 26.6333 15.1111 25.4781 15.1111 24.0531V13.7325ZM24.7953 15.6676C24.7953 16.0239 25.0362 16.3126 25.3333 16.3126H29.6374C29.9345 16.3126 30.1754 16.0239 30.1754 15.6676C30.1754 15.3114 29.9345 15.0226 29.6374 15.0226H25.3333C25.0362 15.0226 24.7953 15.3114 24.7953 15.6676ZM24.7953 18.8928C24.7953 19.249 25.0362 19.5378 25.3333 19.5378H29.6374C29.9345 19.5378 30.1754 19.249 30.1754 18.8928C30.1754 18.5366 29.9345 18.2478 29.6374 18.2478H25.3333C25.0362 18.2478 24.7953 18.5366 24.7953 18.8928ZM25.8713 22.118C25.8713 22.4742 26.1122 22.763 26.4093 22.763H29.6374C29.9345 22.763 30.1754 22.4742 30.1754 22.118C30.1754 21.7617 29.9345 21.473 29.6374 21.473H26.4093C26.1122 21.473 25.8713 21.7617 25.8713 22.118ZM24.7953 24.6981C24.7953 22.2044 22.8683 20.1829 20.4912 20.1829C18.2463 20.1829 16.4028 21.9859 16.2047 24.2868C16.2964 24.8878 16.7354 25.3432 17.2631 25.3432H24.7517C24.7804 25.1325 24.7953 24.9171 24.7953 24.6981ZM22.6432 16.3126C22.6432 14.8877 21.6797 13.7325 20.4912 13.7325C19.3026 13.7325 18.3391 14.8877 18.3391 16.3126C18.3391 17.7376 19.3026 18.8928 20.4912 18.8928C21.6797 18.8928 22.6432 17.7376 22.6432 16.3126Z" fill="black" />
                </svg>