<svg width="97" height="37" viewBox="0 0 97 37" fill="none" xmlns="http://www.w3.org/2000/svg">
                    <path d="M0.49707 17.3026C0.49707 8.20616 7.8712 0.832031 16.9677 0.832031H79.7926C88.889 0.832031 96.2632 8.20617 96.2632 17.3026V20.4836C96.2632 29.58 88.889 36.9542 79.7926 36.9542H16.9677C7.8712 36.9542 0.49707 29.58 0.49707 20.4836V17.3026Z" fill="#D9D9D9" />
                    <path d="M50.0468 15.5792H46.6077V24.9922H45.1772V15.5792H41.7308V14.3711H50.0468V15.5792ZM52.6668 17.3655C53.2153 17.3655 53.7094 17.4569 54.1492 17.6397C54.5889 17.8225 54.9645 18.082 55.2758 18.418C55.5871 18.754 55.8242 19.1616 55.9873 19.6409C56.1553 20.1152 56.2393 20.6464 56.2393 21.2344C56.2393 21.8274 56.1553 22.361 55.9873 22.8354C55.8242 23.3097 55.5871 23.7149 55.2758 24.0509C54.9645 24.3869 54.5889 24.6463 54.1492 24.8291C53.7094 25.007 53.2153 25.096 52.6668 25.096C52.1134 25.096 51.6143 25.007 51.1696 24.8291C50.7299 24.6463 50.3543 24.3869 50.0431 24.0509C49.7318 23.7149 49.4921 23.3097 49.3241 22.8354C49.1611 22.361 49.0795 21.8274 49.0795 21.2344C49.0795 20.6464 49.1611 20.1152 49.3241 19.6409C49.4921 19.1616 49.7318 18.754 50.0431 18.418C50.3543 18.082 50.7299 17.8225 51.1696 17.6397C51.6143 17.4569 52.1134 17.3655 52.6668 17.3655ZM52.6668 24.0657C53.408 24.0657 53.9614 23.8187 54.3271 23.3245C54.6927 22.8255 54.8755 22.1312 54.8755 21.2418C54.8755 20.3475 54.6927 19.6508 54.3271 19.1517C53.9614 18.6527 53.408 18.4031 52.6668 18.4031C52.2913 18.4031 51.9627 18.4674 51.6811 18.5958C51.4043 18.7243 51.1721 18.9096 50.9843 19.1517C50.8015 19.3938 50.6632 19.6928 50.5693 20.0485C50.4803 20.3994 50.4359 20.7971 50.4359 21.2418C50.4359 22.1312 50.6187 22.8255 50.9843 23.3245C51.3549 23.8187 51.9158 24.0657 52.6668 24.0657ZM62.8044 19.2703C62.5573 18.9392 62.2905 18.7095 62.0039 18.581C61.7173 18.4476 61.3961 18.3809 61.0404 18.3809C60.3437 18.3809 59.8076 18.6304 59.432 19.1295C59.0565 19.6285 58.8687 20.3401 58.8687 21.2641C58.8687 21.7532 58.9107 22.1732 58.9947 22.5241C59.0787 22.87 59.2023 23.1565 59.3653 23.3838C59.5284 23.6062 59.7285 23.7692 59.9657 23.873C60.2028 23.9768 60.4721 24.0287 60.7736 24.0287C61.2084 24.0287 61.5864 23.9298 61.9076 23.7322C62.2337 23.5345 62.5326 23.2554 62.8044 22.8947V19.2703ZM64.1237 14.0747V24.9922H63.338C63.1503 24.9922 63.0317 24.9008 62.9823 24.718L62.8637 23.8063C62.5425 24.1917 62.1768 24.503 61.7667 24.7402C61.3566 24.9774 60.8823 25.096 60.3437 25.096C59.9138 25.096 59.5234 25.0144 59.1726 24.8514C58.8218 24.6834 58.5228 24.4388 58.2758 24.1176C58.0287 23.7964 57.8385 23.3962 57.7051 22.9169C57.5717 22.4376 57.505 21.8867 57.505 21.2641C57.505 20.7107 57.5791 20.1968 57.7273 19.7224C57.8756 19.2431 58.088 18.8281 58.3647 18.4772C58.6414 18.1264 58.9799 17.8522 59.3801 17.6545C59.7853 17.452 60.2399 17.3507 60.7439 17.3507C61.2034 17.3507 61.5963 17.4297 61.9224 17.5878C62.2534 17.741 62.5474 17.956 62.8044 18.2327V14.0747H64.1237ZM70.2765 21.6124C69.6687 21.6322 69.1499 21.6816 68.72 21.7607C68.2951 21.8348 67.9467 21.9336 67.6749 22.0571C67.4081 22.1807 67.2129 22.3264 67.0894 22.4944C66.9708 22.6624 66.9115 22.8502 66.9115 23.0577C66.9115 23.2554 66.9437 23.4258 67.0079 23.5691C67.0721 23.7124 67.1586 23.831 67.2673 23.9249C67.3809 24.0138 67.5119 24.0805 67.6601 24.125C67.8133 24.1645 67.9764 24.1843 68.1493 24.1843C68.3815 24.1843 68.594 24.1621 68.7867 24.1176C68.9794 24.0682 69.1598 23.999 69.3278 23.9101C69.5007 23.8211 69.6638 23.7149 69.8169 23.5914C69.9751 23.4678 70.1282 23.327 70.2765 23.1689V21.6124ZM66.0147 18.544C66.4298 18.1437 66.8769 17.8448 67.3562 17.6471C67.8355 17.4495 68.3667 17.3507 68.9498 17.3507C69.3698 17.3507 69.7428 17.4198 70.0689 17.5582C70.3951 17.6965 70.6693 17.8892 70.8917 18.1363C71.114 18.3834 71.282 18.6823 71.3957 19.0331C71.5093 19.384 71.5661 19.7694 71.5661 20.1894V24.9922H70.9806C70.8521 24.9922 70.7533 24.9724 70.6841 24.9329C70.6149 24.8884 70.5606 24.8044 70.5211 24.6809L70.3728 23.9694C70.1752 24.1522 69.9825 24.3152 69.7947 24.4585C69.6069 24.5969 69.4093 24.7155 69.2018 24.8143C68.9942 24.9082 68.7719 24.9798 68.5347 25.0292C68.3025 25.0836 68.0431 25.1108 67.7565 25.1108C67.4649 25.1108 67.1907 25.0712 66.9338 24.9922C66.6768 24.9082 66.452 24.7847 66.2593 24.6216C66.0715 24.4585 65.9208 24.2535 65.8072 24.0064C65.6985 23.7544 65.6441 23.458 65.6441 23.117C65.6441 22.8205 65.7257 22.5364 65.8887 22.2647C66.0518 21.988 66.3161 21.7434 66.6818 21.5309C67.0474 21.3184 67.5242 21.1455 68.1122 21.0121C68.7002 20.8737 69.4217 20.7947 70.2765 20.7749V20.1894C70.2765 19.6063 70.1505 19.1665 69.8985 18.8701C69.6465 18.5687 69.2784 18.418 68.7941 18.418C68.468 18.418 68.1938 18.46 67.9714 18.544C67.754 18.623 67.5638 18.7144 67.4007 18.8182C67.2426 18.917 67.1042 19.0084 66.9857 19.0924C66.872 19.1715 66.7584 19.211 66.6447 19.211C66.5558 19.211 66.4792 19.1888 66.4149 19.1443C66.3507 19.0949 66.2964 19.0356 66.2519 18.9664L66.0147 18.544ZM79.8799 17.4841L75.6923 27.2083C75.6478 27.3071 75.591 27.3862 75.5218 27.4455C75.4576 27.5048 75.3563 27.5344 75.2179 27.5344H74.2396L75.6107 24.5549L72.5126 17.4841H73.654C73.7677 17.4841 73.8566 17.5137 73.9209 17.573C73.99 17.6274 74.037 17.6891 74.0617 17.7583L76.0703 22.487C76.1493 22.6945 76.216 22.912 76.2704 23.1392C76.3396 22.907 76.4137 22.6871 76.4927 22.4796L78.442 17.7583C78.4717 17.6792 78.5211 17.615 78.5903 17.5656C78.6644 17.5112 78.7459 17.4841 78.8349 17.4841H79.8799Z" fill="black" />
                    <path d="M17.4094 9.07251C17.4094 8.79637 17.1855 8.57251 16.9094 8.57251C16.6332 8.57251 16.4094 8.79637 16.4094 9.07251V9.57251H15.4094C14.3048 9.57251 13.4094 10.4679 13.4094 11.5725V12.5725H29.4094V11.5725C29.4094 10.4679 28.5139 9.57251 27.4094 9.57251H26.4094V9.07251C26.4094 8.79637 26.1855 8.57251 25.9094 8.57251C25.6332 8.57251 25.4094 8.79637 25.4094 9.07251V9.57251H17.4094V9.07251Z" fill="black" />
                    <path d="M29.4094 22.5725V13.5725H13.4094V22.5725C13.4094 23.6771 14.3048 24.5725 15.4094 24.5725H27.4094C28.5139 24.5725 29.4094 23.6771 29.4094 22.5725ZM24.2629 17.4261L21.2629 20.4261C21.1691 20.5198 21.042 20.5725 20.9094 20.5725C20.7768 20.5725 20.6496 20.5198 20.5558 20.4261L19.0558 18.9261C18.8605 18.7308 18.8605 18.4142 19.0558 18.219C19.2511 18.0237 19.5677 18.0237 19.7629 18.219L20.9094 19.3654L23.5558 16.719C23.7511 16.5237 24.0677 16.5237 24.2629 16.719C24.4582 16.9142 24.4582 17.2308 24.2629 17.4261Z" fill="black" />
                </svg>